<?xml version="1.0" encoding="UTF-8" standalone="no"?>
<!DOCTYPE svg PUBLIC "-//W3C//DTD SVG 1.1//EN" "http://www.w3.org/Graphics/SVG/1.1/DTD/svg11.dtd">
<svg xmlns="http://www.w3.org/2000/svg" xmlns:xl="http://www.w3.org/1999/xlink" xmlns:dc="http://purl.org/dc/elements/1.1/" version="1.1" viewBox="0 0 800 800" width="800" height="800">
  <defs/>
  <metadata> Produced by OmniGraffle 7.10.2 
    <dc:date>2019-09-27 05:36:00 +0000</dc:date>
  </metadata>
  <g id="版面___1" stroke="none" stroke-opacity="1" stroke-dasharray="none" fill-opacity="1" fill="none">
    <title>Canvas 1</title>
    <g id="版面___1: Layer 2">
      <title>Layer 2</title>
      <g id="Group_769">
        <g id="Graphic_1418">
          <path d="M 799 547.7953 L 799 464.00843 L 794.79 482.6311 Z" fill="#e2e2e2"/>
        </g>
        <g id="Graphic_1417">
          <path d="M 799 632.42626 L 799 547.7952 L 794.79 579.9552 Z" fill="#dfdfdf"/>
        </g>
        <g id="Graphic_1416">
          <path d="M 794.79 482.63105 L 799 464.0084 L 790.58 469.9379 Z" fill="#e1e1e1"/>
        </g>
        <g id="Graphic_1415">
          <path d="M 799 800 L 799 716.2131 L 790.58 740.7552 Z" fill="#a6a6a6"/>
        </g>
        <g id="Graphic_1414">
          <path d="M 799 -4.000018 L 799 210.95943 L 782.16 139.87578 Z" fill="#fbfbfb"/>
        </g>
        <g id="Graphic_1413">
          <path d="M 799 210.95943 L 799 -4.000018 L 782.16 139.87578 Z" fill="#fbfbfb"/>
        </g>
        <g id="Graphic_1412">
          <path d="M 1599.5 100910.7 L 1599.5 1096.9403 Z" fill="#fbfbfb"/>
        </g>
        <g id="Graphic_1411">
          <path d="M 799 -3.999992 L 782.16 139.8758 L 773.74 72.16896 Z" fill="#fdfdfd"/>
        </g>
        <g id="Graphic_1410">
          <path d="M 782.16 139.8758 L 799 -3.999992 L 773.74 72.16896 Z" fill="#fdfdfd"/>
        </g>
        <g id="Graphic_1409">
          <path d="M 799 127.18268 L 799 42.54158 L 773.74 72.16898 Z" fill="#fdfdfd"/>
        </g>
        <g id="Graphic_1408">
          <path d="M 799 464.0084 L 799 379.37736 L 773.74 440.3105 Z" fill="#e2e2e2"/>
        </g>
        <g id="Graphic_1407">
          <path d="M 790.58 469.93786 L 799 464.00836 L 773.74 440.31046 Z" fill="#e0e0e0"/>
        </g>
        <g id="Graphic_1406">
          <path d="M 799 210.9594 L 799 127.18261 L 782.16 139.87576 Z" fill="#f0f0f0"/>
        </g>
        <g id="Graphic_1405">
          <path d="M 773.74 72.16892 L 799 42.54152 L 765.32 67.93787 Z" fill="#fdfdfd"/>
        </g>
        <g id="Graphic_1404">
          <path d="M 794.79 482.631 L 790.58 469.9379 L 765.32 486.8621 Z" fill="#d4d4d4"/>
        </g>
        <g id="Graphic_1403">
          <path d="M 799 254.1242 L 799 210.95945 L 756.89 245.6621 Z" fill="#ededed"/>
        </g>
        <g id="Graphic_1402">
          <path d="M 790.58 469.93786 L 773.74 440.31046 L 752.68 465.7068 Z" fill="#dfdfdf"/>
        </g>
        <g id="Graphic_1401">
          <path d="M 765.32 486.86214 L 790.58 469.93794 L 752.68 465.7069 Z" fill="#dbdbdb"/>
        </g>
        <g id="Graphic_1400">
          <path d="M 799 547.7952 L 794.79 482.631 L 765.32 486.86206 Z" fill="#e2e2e2"/>
        </g>
        <g id="Graphic_1399">
          <path d="M 799 210.95948 L 782.16 139.87583 L 748.47 177.95528 Z" fill="#ebebeb"/>
        </g>
        <g id="Graphic_1398">
          <path d="M 799 -4.0000384 L 773.74 72.16891 L 765.32 67.93786 Z" fill="#fcfcfc"/>
        </g>
        <g id="Graphic_1397">
          <path d="M 773.74 72.16891 L 799 -4.0000384 L 765.32 67.93786 Z" fill="#fcfcfc"/>
        </g>
        <g id="Graphic_1396">
          <path d="M 752.68 465.7069 L 773.74 440.31053 L 744.26 453.01373 Z" fill="#d0d0d0"/>
        </g>
        <g id="Graphic_1395">
          <path d="M 799 716.2132 L 799 702.6758 L 744.26 711.1379 Z" fill="#cfcfcf"/>
        </g>
        <g id="Graphic_1394">
          <path d="M 790.58 740.7552 L 799 716.2131 L 744.26 711.1379 Z" fill="#c1c1c1"/>
        </g>
        <g id="Graphic_1393">
          <path d="M 799 -3.9999726 L 765.32 67.93793 Z" fill="#fbfbfb"/>
        </g>
        <g id="Graphic_1392">
          <path d="M 790.58 740.7552 L 744.26 711.1379 L 740.05 740.7552 Z" fill="#bebebe"/>
        </g>
        <g id="Graphic_1391">
          <path d="M 799 379.37734 L 799 295.5905 L 740.05 326.0621 Z" fill="#efefef"/>
        </g>
        <g id="Graphic_1390">
          <path d="M 748.47 177.95527 L 782.16 139.87582 L 744.26 173.72422 Z" fill="#f4f4f4"/>
        </g>
        <g id="Graphic_1389">
          <path d="M 799 295.5905 L 799 254.1242 L 756.89 245.6621 Z" fill="#ebebeb"/>
        </g>
        <g id="Graphic_1388">
          <path d="M 782.16 139.87581 L 799 127.18266 L 773.74 72.168964 Z" fill="#fdfdfd"/>
        </g>
        <g id="Graphic_1387">
          <path d="M 799 702.6758 L 799 632.4263 L 731.63 673.0484 Z" fill="#cecece"/>
        </g>
        <g id="Graphic_1386">
          <path d="M 744.26 711.1379 L 799 702.6758 L 731.63 673.0484 Z" fill="#c9c9c9"/>
        </g>
        <g id="Graphic_1385">
          <path d="M 799 379.37735 L 740.05 326.0621 L 731.63 364.14155 Z" fill="#e1e1e1"/>
        </g>
        <g id="Graphic_1384">
          <path d="M 765.32 67.937935 L 799 42.541585 L 748.47 63.706885 Z" fill="#fdfdfd"/>
        </g>
        <g id="Graphic_1383">
          <path d="M 756.89 245.66212 L 799 210.95947 L 748.47 177.95527 Z" fill="#f2f2f2"/>
        </g>
        <g id="Graphic_1382">
          <path d="M 799 800 L 790.58 740.7552 L 727.42 766.1415 Z" fill="#a4a4a4"/>
        </g>
        <g id="Graphic_1381">
          <path d="M 790.58 740.7553 L 740.05 740.7553 L 727.42 766.1416 Z" fill="#c7c7c7"/>
        </g>
        <g id="Graphic_1380">
          <path d="M 731.63 673.0484 L 799 632.4263 L 727.42 660.3552 Z" fill="#d4d4d4"/>
        </g>
        <g id="Graphic_1379">
          <path d="M 744.26 711.1379 L 731.63 673.0484 L 723.21 706.9069 Z" fill="#d3d3d3"/>
        </g>
        <g id="Graphic_1378">
          <path d="M 799 295.5905 L 756.89 245.6621 L 740.05 326.0621 Z" fill="#eee"/>
        </g>
        <g id="Graphic_1377">
          <path d="M 799 800 L 727.42 766.1416 L 715.63 800 Z" fill="#ababab"/>
        </g>
        <g id="Graphic_1376">
          <path d="M 773.74 440.31046 L 799 379.3773 L 731.63 364.1415 Z" fill="#e5e5e5"/>
        </g>
        <g id="Graphic_1375">
          <path d="M 799 632.4263 L 794.79 579.9552 L 714.79 588.4173 Z" fill="#dfdfdf"/>
        </g>
        <g id="Graphic_1374">
          <path d="M 727.42 660.35526 L 799 632.4263 L 714.79 588.41736 Z" fill="#dbdbdb"/>
        </g>
        <g id="Graphic_1373">
          <path d="M 794.79 579.9552 L 799 547.7952 L 714.79 588.4173 Z" fill="#dadada"/>
        </g>
        <g id="Graphic_1372">
          <path d="M 756.89 245.66212 L 748.47 177.95527 L 714.79 207.58267 Z" fill="#f6f6f6"/>
        </g>
        <g id="Graphic_1371">
          <path d="M 748.47 177.95529 L 744.26 173.72424 L 714.79 207.5827 Z" fill="#f7f7f7"/>
        </g>
        <g id="Graphic_1370">
          <path d="M 748.47 63.70685 L 799 -3.999998 L 715.63 -3.999998 Z" fill="#fbfbfb"/>
        </g>
        <g id="Graphic_1369">
          <path d="M 740.05 740.7553 L 744.26 711.1379 L 723.21 706.9069 Z" fill="#c5c5c5"/>
        </g>
        <g id="Graphic_1368">
          <path d="M 799 42.54155 L 799 -3.999998 L 748.47 63.70685 Z" fill="#fcfcfc"/>
        </g>
        <g id="Graphic_1367">
          <path d="M 782.16 139.87579 L 773.74 72.16894 L 765.32 67.93789 Z" fill="#fdfdfd"/>
        </g>
        <g id="Graphic_1366">
          <path d="M 727.42 766.1416 L 740.05 740.7553 L 702.16 744.9863 Z" fill="#bdbdbd"/>
        </g>
        <g id="Graphic_1365">
          <path d="M 740.05 740.7552 L 702.16 740.7552 L 702.16 744.9863 Z" fill="#c5c5c5"/>
        </g>
        <g id="Graphic_1364">
          <path d="M 740.05 740.7553 L 723.21 706.9069 L 702.16 740.7553 Z" fill="#d5d5d5"/>
        </g>
        <g id="Graphic_1363">
          <path d="M 782.16 139.87576 L 765.32 67.93786 L 748.47 63.70681 Z" fill="#fdfdfd"/>
        </g>
        <g id="Graphic_1362">
          <path d="M 731.63 364.14154 L 740.05 326.0621 L 697.95 347.21734 Z" fill="#e3e3e3"/>
        </g>
        <g id="Graphic_1361">
          <path d="M 702.16 359.91053 L 731.63 364.1416 L 697.95 347.2174 Z" fill="#ececec"/>
        </g>
        <g id="Graphic_1360">
          <path d="M 744.26 453.01374 L 773.74 440.31054 L 731.63 364.1416 Z" fill="#dfdfdf"/>
        </g>
        <g id="Graphic_1359">
          <path d="M 748.47 63.70684 L 702.16 72.16894 L 693.74 84.86209 Z" fill="#fdfdfd"/>
        </g>
        <g id="Graphic_1358">
          <path d="M 702.16 740.7553 L 723.21 706.9069 L 693.74 728.0621 Z" fill="#c9c9c9"/>
        </g>
        <g id="Graphic_1357">
          <path d="M 748.47 63.706895 L 693.74 84.86214 L 689.53 93.32424 Z" fill="#fdfdfd"/>
        </g>
        <g id="Graphic_1356">
          <path d="M 752.68 465.70687 L 744.26 453.0137 L 697.95 453.0137 Z" fill="#d4d4d4"/>
        </g>
        <g id="Graphic_1355">
          <path d="M 799 547.7952 L 765.32 486.86206 L 714.79 588.4173 Z" fill="#d9d9d9"/>
        </g>
        <g id="Graphic_1354">
          <path d="M 782.16 139.87576 L 748.47 63.70681 L 689.53 93.32416 Z" fill="#fdfdfd"/>
        </g>
        <g id="Graphic_1353">
          <path d="M 744.26 173.72418 L 782.16 139.87578 L 689.53 93.32418 Z" fill="#fafafa"/>
        </g>
        <g id="Graphic_1352">
          <path d="M 748.47 63.70681 L 715.63 -4.0000384 L 702.16 72.16891 Z" fill="#fcfcfc"/>
        </g>
        <g id="Graphic_1351">
          <path d="M 693.74 584.1863 L 681.1 579.95525 L 676.89 592.6484 Z" fill="#dfdfdf"/>
        </g>
        <g id="Graphic_1350">
          <path d="M 689.53 453.01373 L 685.32 453.01373 L 676.89 482.6311 Z" fill="#dadada"/>
        </g>
        <g id="Graphic_1349">
          <path d="M 697.95 453.01373 L 689.53 453.01373 L 676.89 482.6311 Z" fill="#d9d9d9"/>
        </g>
        <g id="Graphic_1348">
          <path d="M 765.32 486.86214 L 752.68 465.7069 L 676.89 482.6311 Z" fill="#ddd"/>
        </g>
        <g id="Graphic_1347">
          <path d="M 752.68 465.7069 L 697.95 453.01373 L 676.89 482.6311 Z" fill="#e3e3e3"/>
        </g>
        <g id="Graphic_1346">
          <path d="M 697.95 347.2174 L 681.1 334.52424 L 676.89 342.98634 Z" fill="#efefef"/>
        </g>
        <g id="Graphic_1345">
          <path d="M 697.95 347.21733 L 740.05 326.0621 L 681.1 334.5242 Z" fill="#eaeaea"/>
        </g>
        <g id="Graphic_1344">
          <path d="M 744.26 453.01374 L 731.63 364.1416 L 697.95 453.01374 Z" fill="#e1e1e1"/>
        </g>
        <g id="Graphic_1343">
          <path d="M 715.63 800 L 727.42 766.1415 L 702.16 744.9863 Z" fill="#cacaca"/>
        </g>
        <g id="Graphic_1342">
          <path d="M 693.74 728.0621 L 723.21 706.90686 L 668.47 685.74156 Z" fill="#d9d9d9"/>
        </g>
        <g id="Graphic_1341">
          <path d="M 731.63 673.0484 L 727.42 660.3552 L 668.47 685.7415 Z" fill="#d5d5d5"/>
        </g>
        <g id="Graphic_1340">
          <path d="M 723.21 706.9068 L 731.63 673.0484 L 668.47 685.7415 Z" fill="#d6d6d6"/>
        </g>
        <g id="Graphic_1339">
          <path d="M 715.63 800 L 702.16 744.9863 L 668.47 766.1415 Z" fill="#c8c8c8"/>
        </g>
        <g id="Graphic_1338">
          <path d="M 714.79 588.4174 L 693.74 584.1863 L 676.89 592.6484 Z" fill="#d3d3d3"/>
        </g>
        <g id="Graphic_1337">
          <path d="M 702.16 359.9105 L 697.95 347.21733 L 676.89 342.9863 Z" fill="#e6e6e6"/>
        </g>
        <g id="Graphic_1336">
          <path d="M 702.16 72.16891 L 715.63 -4.0000384 L 685.32 .2310116 Z" fill="#fafafa"/>
        </g>
        <g id="Graphic_1335">
          <path d="M 702.16 744.9863 L 702.16 740.75525 L 693.74 728.0621 Z" fill="#d4d4d4"/>
        </g>
        <g id="Graphic_1334">
          <path d="M 702.16 359.91047 L 676.89 342.98627 L 664.26 372.61367 Z" fill="#e6e6e6"/>
        </g>
        <g id="Graphic_1333">
          <path d="M 731.63 364.14156 L 702.16 359.9105 L 697.95 453.0137 Z" fill="#e7e7e7"/>
        </g>
        <g id="Graphic_1332">
          <path d="M 689.53 93.32416 L 693.74 84.86206 L 660.05 80.63101 Z" fill="#fdfdfd"/>
        </g>
        <g id="Graphic_1331">
          <path d="M 702.16 72.16894 L 685.32 .2310372 L 668.47 8.693137 Z" fill="#fbfbfb"/>
        </g>
        <g id="Graphic_1330">
          <path d="M 702.16 744.9863 L 693.74 728.0621 L 668.47 766.1416 Z" fill="#c1c1c1"/>
        </g>
        <g id="Graphic_1329">
          <path d="M 727.42 660.35526 L 714.79 588.41736 L 676.89 592.6484 Z" fill="#d3d3d3"/>
        </g>
        <g id="Graphic_1328">
          <path d="M 714.79 588.4174 L 765.32 486.8621 L 676.89 482.6311 Z" fill="#e1e1e1"/>
        </g>
        <g id="Graphic_1327">
          <path d="M 693.74 584.1863 L 714.79 588.4174 L 676.89 482.6311 Z" fill="#d6d6d6"/>
        </g>
        <g id="Graphic_1326">
          <path d="M 681.1 579.9552 L 693.74 584.18626 L 655.84 550.33786 Z" fill="#d1d1d1"/>
        </g>
        <g id="Graphic_1325">
          <path d="M 693.74 584.1863 L 676.89 482.63105 L 655.84 550.3379 Z" fill="#dbdbdb"/>
        </g>
        <g id="Graphic_1324">
          <path d="M 740.05 326.0621 L 756.89 245.6621 L 655.84 266.81736 Z" fill="#f6f6f6"/>
        </g>
        <g id="Graphic_1323">
          <path d="M 681.1 334.5242 L 740.05 326.0621 L 655.84 266.81735 Z" fill="#f3f3f3"/>
        </g>
        <g id="Graphic_1322">
          <path d="M 756.89 245.66206 L 714.79 207.58261 L 655.84 266.8173 Z" fill="#fafafa"/>
        </g>
        <g id="Graphic_1321">
          <path d="M 676.89 592.6484 L 681.1 579.9552 L 655.84 575.7242 Z" fill="#e1e1e1"/>
        </g>
        <g id="Graphic_1320">
          <path d="M 693.74 84.86214 L 702.16 72.168995 L 660.05 80.63109 Z" fill="#fdfdfd"/>
        </g>
        <g id="Graphic_1319">
          <path d="M 715.63 800 L 668.47 766.1416 L 651.63 778.8448 Z" fill="#cbcbcb"/>
        </g>
        <g id="Graphic_1318">
          <path d="M 655.84 575.7242 L 681.1 579.9553 L 655.84 550.3379 Z" fill="#e1e1e1"/>
        </g>
        <g id="Graphic_1317">
          <path d="M 685.32 453.0137 L 689.53 453.0137 L 664.26 372.6137 Z" fill="#e5e5e5"/>
        </g>
        <g id="Graphic_1316">
          <path d="M 697.95 453.0137 L 702.16 359.9105 L 664.26 372.6137 Z" fill="#e7e7e7"/>
        </g>
        <g id="Graphic_1315">
          <path d="M 689.53 453.0137 L 697.95 453.0137 L 664.26 372.6137 Z" fill="#e4e4e4"/>
        </g>
        <g id="Graphic_1314">
          <path d="M 702.16 72.16899 L 668.47 8.693188 L 643.21 59.47584 Z" fill="#fdfdfd"/>
        </g>
        <g id="Graphic_1313">
          <path d="M 660.05 80.63108 L 702.16 72.16898 L 643.21 59.475834 Z" fill="#fdfdfd"/>
        </g>
        <g id="Graphic_1312">
          <path d="M 727.42 660.35526 L 676.89 592.6484 L 668.47 685.74156 Z" fill="#dbdbdb"/>
        </g>
        <g id="Graphic_1311">
          <path d="M 693.74 728.0621 L 668.47 685.74156 L 634.79 719.6 Z" fill="#d3d3d3"/>
        </g>
        <g id="Graphic_1310">
          <path d="M 655.84 266.8173 L 714.79 207.58261 L 634.79 232.9689 Z" fill="#fefefe"/>
        </g>
        <g id="Graphic_1309">
          <path d="M 655.84 550.3379 L 676.89 482.631 L 634.79 516.4895 Z" fill="#e7e7e7"/>
        </g>
        <g id="Graphic_1308">
          <path d="M 643.21 541.8758 L 655.84 550.3379 L 634.79 516.4895 Z" fill="#dedede"/>
        </g>
        <g id="Graphic_1307">
          <path d="M 668.47 766.1415 L 693.74 728.0621 L 634.79 719.6 Z" fill="#d4d4d4"/>
        </g>
        <g id="Graphic_1306">
          <path d="M 685.32 453.0137 L 664.26 372.6137 L 630.58 431.8484 Z" fill="#eaeaea"/>
        </g>
        <g id="Graphic_1305">
          <path d="M 715.63 800 L 651.63 778.8448 L 632.26 800 Z" fill="#b9b9b9"/>
        </g>
        <g id="Graphic_1304">
          <path d="M 714.79 207.58266 L 744.26 173.7242 L 689.53 93.32421 Z" fill="#fafafa"/>
        </g>
        <g id="Graphic_1303">
          <path d="M 668.47 685.74156 L 676.89 592.6484 L 626.37 626.50686 Z" fill="#e0e0e0"/>
        </g>
        <g id="Graphic_1302">
          <path d="M 676.89 592.6484 L 626.37 609.58266 L 626.37 626.5069 Z" fill="#ddd"/>
        </g>
        <g id="Graphic_1301">
          <path d="M 676.89 592.6484 L 655.84 575.7242 L 626.37 609.58264 Z" fill="#e2e2e2"/>
        </g>
        <g id="Graphic_1300">
          <path d="M 660.05 80.63107 L 643.21 59.47582 L 630.58 93.32422 Z" fill="#fdfdfd"/>
        </g>
        <g id="Graphic_1299">
          <path d="M 668.47 8.693182 L 685.32 .23108216 L 632.26 -3.999968 Z" fill="#fefefe"/>
        </g>
        <g id="Graphic_1298">
          <path d="M 689.53 93.32416 L 660.05 80.63101 L 630.58 93.32416 Z" fill="#fdfdfd"/>
        </g>
        <g id="Graphic_1297">
          <path d="M 668.47 766.1415 L 634.79 719.6 L 622.16 728.0621 Z" fill="#c5c5c5"/>
        </g>
        <g id="Graphic_1296">
          <path d="M 676.89 482.63104 L 685.32 453.0137 L 630.58 431.8484 Z" fill="#eaeaea"/>
        </g>
        <g id="Graphic_1295">
          <path d="M 655.84 575.72424 L 655.84 550.33794 L 643.21 541.87584 Z" fill="#d7d7d7"/>
        </g>
        <g id="Graphic_1294">
          <path d="M 634.79 719.59996 L 668.47 685.7415 L 613.74 694.21366 Z" fill="#dbdbdb"/>
        </g>
        <g id="Graphic_1293">
          <path d="M 651.63 778.8448 L 668.47 766.1416 L 622.16 728.0621 Z" fill="#d2d2d2"/>
        </g>
        <g id="Graphic_1292">
          <path d="M 630.58 431.8484 L 617.95 431.8484 L 609.53 453.0137 Z" fill="#f2f2f2"/>
        </g>
        <g id="Graphic_1291">
          <path d="M 676.89 482.63104 L 630.58 431.8484 L 609.53 453.0137 Z" fill="#eee"/>
        </g>
        <g id="Graphic_1290">
          <path d="M 609.53 486.86206 L 676.89 482.631 L 609.53 453.01366 Z" fill="#eee"/>
        </g>
        <g id="Graphic_1289">
          <path d="M 634.79 516.48946 L 676.89 482.631 L 609.53 486.86206 Z" fill="#ededed"/>
        </g>
        <g id="Graphic_1288">
          <path d="M 643.21 59.475776 L 668.47 8.693126 L 632.26 -4.000024 Z" fill="#fdfdfd"/>
        </g>
        <g id="Graphic_1287">
          <path d="M 668.47 685.7416 L 626.37 626.5069 L 605.32 651.8932 Z" fill="#ddd"/>
        </g>
        <g id="Graphic_1286">
          <path d="M 613.74 694.2137 L 668.47 685.7415 L 605.32 651.8931 Z" fill="#cacaca"/>
        </g>
        <g id="Graphic_1285">
          <path d="M 630.58 93.32422 L 643.21 59.47582 L 609.53 59.47582 Z" fill="#fefefe"/>
        </g>
        <g id="Graphic_1284">
          <path d="M 622.16 728.0621 L 634.79 719.6 L 613.74 694.2137 Z" fill="#cdcdcd"/>
        </g>
        <g id="Graphic_1283">
          <path d="M 643.21 541.87584 L 634.79 516.48954 L 605.32 520.71054 Z" fill="#e2e2e2"/>
        </g>
        <g id="Graphic_1282">
          <path d="M 634.79 516.4895 L 609.53 486.8621 L 605.32 520.7105 Z" fill="#efefef"/>
        </g>
        <g id="Graphic_1281">
          <path d="M 609.53 486.86206 L 609.53 453.01366 L 596.89 465.7068 Z" fill="#f3f3f3"/>
        </g>
        <g id="Graphic_1280">
          <path d="M 630.58 431.84836 L 664.26 372.61366 L 596.89 402.231 Z" fill="#f1f1f1"/>
        </g>
        <g id="Graphic_1279">
          <path d="M 617.95 431.84836 L 630.58 431.84836 L 596.89 402.231 Z" fill="#f3f3f3"/>
        </g>
        <g id="Graphic_1278">
          <path d="M 605.32 520.7105 L 609.53 486.8621 L 601.1 491.09316 Z" fill="#f2f2f2"/>
        </g>
        <g id="Graphic_1277">
          <path d="M 622.16 728.0621 L 613.74 694.2137 L 592.68 719.6 Z" fill="#ccc"/>
        </g>
        <g id="Graphic_1276">
          <path d="M 609.53 59.475776 L 632.26 -4.000024 L 592.68 12.924176 Z" fill="#fefefe"/>
        </g>
        <g id="Graphic_1275">
          <path d="M 643.21 541.8758 L 605.32 520.7105 L 592.68 541.8758 Z" fill="#ddd"/>
        </g>
        <g id="Graphic_1274">
          <path d="M 643.21 59.475776 L 632.26 -4.000024 L 609.53 59.475776 Z" fill="#fdfdfd"/>
        </g>
        <g id="Graphic_1273">
          <path d="M 655.84 266.81734 L 634.79 232.96894 L 588.47 275.27944 Z" fill="#fdfdfd"/>
        </g>
        <g id="Graphic_1272">
          <path d="M 601.1 491.0931 L 609.53 486.8621 L 596.89 465.7068 Z" fill="#f4f4f4"/>
        </g>
        <g id="Graphic_1271">
          <path d="M 714.79 207.58266 L 689.53 93.32421 L 630.58 93.32421 Z" fill="#fdfdfd"/>
        </g>
        <g id="Graphic_1270">
          <path d="M 634.79 232.96893 L 714.79 207.58263 L 630.58 93.32418 Z" fill="#fefefe"/>
        </g>
        <g id="Graphic_1269">
          <path d="M 601.1 491.0931 L 596.89 465.7068 L 580.05 486.8621 Z" fill="#f6f6f6"/>
        </g>
        <g id="Graphic_1268">
          <path d="M 655.84 266.81734 L 588.47 275.27944 L 580.05 317.6 Z" fill="#fcfcfc"/>
        </g>
        <g id="Graphic_1267">
          <path d="M 676.89 342.9863 L 681.1 334.5242 L 580.05 317.6 Z" fill="#f4f4f4"/>
        </g>
        <g id="Graphic_1266">
          <path d="M 681.1 334.5242 L 655.84 266.81735 L 580.05 317.6 Z" fill="#f8f8f8"/>
        </g>
        <g id="Graphic_1265">
          <path d="M 630.58 93.32422 L 609.53 59.47582 L 580.05 72.16897 Z" fill="#fefefe"/>
        </g>
        <g id="Graphic_1264">
          <path d="M 596.89 402.231 L 664.26 372.61366 L 588.47 393.7689 Z" fill="#f5f5f5"/>
        </g>
        <g id="Graphic_1263">
          <path d="M 655.84 575.72424 L 643.21 541.87584 L 592.68 541.87584 Z" fill="#d9d9d9"/>
        </g>
        <g id="Graphic_1262">
          <path d="M 626.37 609.5826 L 655.84 575.7242 L 592.68 541.8758 Z" fill="#dcdcdc"/>
        </g>
        <g id="Graphic_1261">
          <path d="M 632.26 800 L 651.63 778.8447 L 622.16 728.0621 Z" fill="#c7c7c7"/>
        </g>
        <g id="Graphic_1260">
          <path d="M 609.53 59.47579 L 592.68 12.924187 L 575.84 51.01369 Z" fill="#fefefe"/>
        </g>
        <g id="Graphic_1259">
          <path d="M 580.05 72.16897 L 609.53 59.47582 L 575.84 51.01372 Z" fill="#fefefe"/>
        </g>
        <g id="Graphic_1258">
          <path d="M 588.47 393.76895 L 664.26 372.6137 L 575.84 372.6137 Z" fill="#f8f8f8"/>
        </g>
        <g id="Graphic_1257">
          <path d="M 664.26 372.6137 L 580.05 317.6 L 575.84 372.6137 Z" fill="#f8f8f8"/>
        </g>
        <g id="Graphic_1256">
          <path d="M 588.47 275.27944 L 634.79 232.96894 L 580.05 232.96894 Z" fill="#fefefe"/>
        </g>
        <g id="Graphic_1255">
          <path d="M 664.26 372.6137 L 676.89 342.9863 L 580.05 317.6 Z" fill="#f3f3f3"/>
        </g>
        <g id="Graphic_1254">
          <path d="M 580.05 486.8621 L 596.89 465.70686 L 567.42 461.4758 Z" fill="#f7f7f7"/>
        </g>
        <g id="Graphic_1253">
          <path d="M 575.84 372.6137 L 580.05 317.6 L 567.42 338.75525 Z" fill="#fcfcfc"/>
        </g>
        <g id="Graphic_1252">
          <path d="M 605.32 520.7105 L 601.1 491.09316 L 580.05 486.8621 Z" fill="#f4f4f4"/>
        </g>
        <g id="Graphic_1251">
          <path d="M 588.47 393.76895 L 575.84 372.6137 L 563.21 381.0758 Z" fill="#fbfbfb"/>
        </g>
        <g id="Graphic_1250">
          <path d="M 592.68 719.6 L 613.74 694.2137 L 563.21 698.4448 Z" fill="#ddd"/>
        </g>
        <g id="Graphic_1249">
          <path d="M 580.05 72.16897 L 575.84 51.01372 L 567.42 51.01372 Z" fill="#fefefe"/>
        </g>
        <g id="Graphic_1248">
          <path d="M 632.26 800 L 622.16 728.0621 L 559 749.2173 Z" fill="#c6c6c6"/>
        </g>
        <g id="Graphic_1247">
          <path d="M 622.16 728.0621 L 592.68 719.6 L 559 749.2173 Z" fill="#d3d3d3"/>
        </g>
        <g id="Graphic_1246">
          <path d="M 613.74 694.2137 L 605.32 651.89314 L 563.21 698.4447 Z" fill="#ddd"/>
        </g>
        <g id="Graphic_1245">
          <path d="M 596.89 465.70687 L 609.53 453.0137 L 567.42 461.4758 Z" fill="#f7f7f7"/>
        </g>
        <g id="Graphic_1244">
          <path d="M 609.53 453.0137 L 617.95 431.8484 L 596.89 402.23105 Z" fill="#f5f5f5"/>
        </g>
        <g id="Graphic_1243">
          <path d="M 580.05 317.60004 L 588.47 275.2795 L 559 309.13794 Z" fill="#fdfdfd"/>
        </g>
        <g id="Graphic_1242">
          <path d="M 626.37 626.50685 L 626.37 609.58265 L 605.32 651.89315 Z" fill="#e3e3e3"/>
        </g>
        <g id="Graphic_1241">
          <path d="M 575.84 372.61373 L 567.42 338.7553 L 554.79 342.98633 Z" fill="#fcfcfc"/>
        </g>
        <g id="Graphic_1240">
          <path d="M 567.42 338.75526 L 580.05 317.6 L 559 309.1379 Z" fill="#fdfdfd"/>
        </g>
        <g id="Graphic_1239">
          <path d="M 609.53 453.01366 L 596.89 402.231 L 567.42 461.47576 Z" fill="#f9f9f9"/>
        </g>
        <g id="Graphic_1238">
          <path d="M 575.84 51.01373 L 592.68 12.924227 L 567.42 51.01373 Z" fill="#fefefe"/>
        </g>
        <g id="Graphic_1237">
          <path d="M 580.05 232.96893 L 634.79 232.96893 L 546.37 199.11048 Z" fill="#fefefe"/>
        </g>
        <g id="Graphic_1236">
          <path d="M 592.68 719.59996 L 563.21 698.4447 L 546.37 736.52416 Z" fill="#cdcdcd"/>
        </g>
        <g id="Graphic_1235">
          <path d="M 559 749.2173 L 592.68 719.6 L 546.37 736.5242 Z" fill="#d8d8d8"/>
        </g>
        <g id="Graphic_1234">
          <path d="M 605.32 651.89315 L 626.37 609.58265 L 546.37 622.2758 Z" fill="#e8e8e8"/>
        </g>
        <g id="Graphic_1233">
          <path d="M 550.58 634.9689 L 605.32 651.8931 L 546.37 622.2758 Z" fill="#eaeaea"/>
        </g>
        <g id="Graphic_1232">
          <path d="M 559 309.1379 L 588.47 275.27944 L 546.37 287.98264 Z" fill="#fdfdfd"/>
        </g>
        <g id="Graphic_1231">
          <path d="M 632.26 800 L 559 749.2174 L 548.05 800 Z" fill="#d2d2d2"/>
        </g>
        <g id="Graphic_1230">
          <path d="M 567.42 338.7553 L 559 309.13794 L 554.79 342.98634 Z" fill="#fdfdfd"/>
        </g>
        <g id="Graphic_1229">
          <path d="M 563.21 381.0758 L 575.84 372.6137 L 554.79 342.9863 Z" fill="#fdfdfd"/>
        </g>
        <g id="Graphic_1228">
          <path d="M 592.68 541.87584 L 605.32 520.71054 L 580.05 486.86214 Z" fill="#f2f2f2"/>
        </g>
        <g id="Graphic_1227">
          <path d="M 546.37 736.52416 L 563.21 698.4447 L 537.95 715.3689 Z" fill="#cdcdcd"/>
        </g>
        <g id="Graphic_1226">
          <path d="M 559 309.13788 L 546.37 287.98263 L 537.95 309.13788 Z" fill="#fefefe"/>
        </g>
        <g id="Graphic_1225">
          <path d="M 634.79 232.96893 L 630.58 93.32418 L 546.37 199.11048 Z" fill="#fefefe"/>
        </g>
        <g id="Graphic_1224">
          <path d="M 567.42 51.013716 L 592.68 12.924216 L 548.05 -3.9999837 Z" fill="#fefefe"/>
        </g>
        <g id="Graphic_1223">
          <path d="M 563.21 698.4447 L 605.32 651.8931 L 550.58 634.9689 Z" fill="#e3e3e3"/>
        </g>
        <g id="Graphic_1222">
          <path d="M 588.47 275.27944 L 580.05 232.96894 L 533.74 249.89314 Z" fill="#fdfdfd"/>
        </g>
        <g id="Graphic_1221">
          <path d="M 546.37 287.98263 L 588.47 275.27943 L 533.74 249.89313 Z" fill="#fdfdfd"/>
        </g>
        <g id="Graphic_1220">
          <path d="M 588.47 393.769 L 563.21 381.07584 L 533.74 406.46214 Z" fill="#fcfcfc"/>
        </g>
        <g id="Graphic_1219">
          <path d="M 626.37 609.5826 L 592.68 541.87575 L 546.37 622.27575 Z" fill="#ececec"/>
        </g>
        <g id="Graphic_1218">
          <path d="M 537.95 283.74153 L 546.37 287.98263 L 533.74 249.89313 Z" fill="#fefefe"/>
        </g>
        <g id="Graphic_1217">
          <path d="M 567.42 461.4758 L 588.47 393.76895 L 533.74 406.4621 Z" fill="#fcfcfc"/>
        </g>
        <g id="Graphic_1216">
          <path d="M 546.37 622.27575 L 592.68 541.87575 L 537.95 558.79995 Z" fill="#f3f3f3"/>
        </g>
        <g id="Graphic_1215">
          <path d="M 554.79 342.98634 L 559 309.13794 L 537.95 309.13794 Z" fill="#fdfdfd"/>
        </g>
        <g id="Graphic_1214">
          <path d="M 592.68 12.924166 L 632.26 -4.0000336 L 548.05 -4.0000336 Z" fill="#fefefe"/>
        </g>
        <g id="Graphic_1213">
          <path d="M 596.89 402.23105 L 588.47 393.76895 L 567.42 461.4758 Z" fill="#fafafa"/>
        </g>
        <g id="Graphic_1212">
          <path d="M 563.21 698.4447 L 550.58 634.9689 L 525.32 677.2794 Z" fill="#e4e4e4"/>
        </g>
        <g id="Graphic_1211">
          <path d="M 537.95 715.3689 L 563.21 698.4447 L 525.32 677.2794 Z" fill="#ddd"/>
        </g>
        <g id="Graphic_1210">
          <path d="M 563.21 381.0758 L 554.79 342.9863 L 525.32 359.9105 Z" fill="#fefefe"/>
        </g>
        <g id="Graphic_1209">
          <path d="M 554.79 342.9863 L 525.32 355.67943 L 525.32 359.9105 Z" fill="#fefefe"/>
        </g>
        <g id="Graphic_1208">
          <path d="M 580.05 72.16894 L 529.53 93.32419 L 525.32 135.64474 Z" fill="#fefefe"/>
        </g>
        <g id="Graphic_1207">
          <path d="M 630.58 93.32419 L 580.05 72.16894 L 525.32 135.64474 Z" fill="#fefefe"/>
        </g>
        <g id="Graphic_1206">
          <path d="M 546.37 199.11054 L 630.58 93.32424 L 525.32 135.6448 Z" fill="#fdfdfd"/>
        </g>
        <g id="Graphic_1205">
          <path d="M 548.05 800 L 559 749.2174 L 525.32 770.3827 Z" fill="#ccc"/>
        </g>
        <g id="Graphic_1204">
          <path d="M 559 749.2174 L 546.37 736.5242 L 525.32 770.3827 Z" fill="#d3d3d3"/>
        </g>
        <g id="Graphic_1203">
          <path d="M 580.05 72.16892 L 567.42 51.01367 L 529.53 93.32417 Z" fill="#fefefe"/>
        </g>
        <g id="Graphic_1202">
          <path d="M 550.58 634.969 L 546.37 622.27584 L 529.53 618.0448 Z" fill="#efefef"/>
        </g>
        <g id="Graphic_1201">
          <path d="M 580.05 232.96894 L 546.37 199.1105 L 533.74 249.89314 Z" fill="#fdfdfd"/>
        </g>
        <g id="Graphic_1200">
          <path d="M 567.42 461.4758 L 533.74 406.4621 L 533.74 453.0137 Z" fill="#fdfdfd"/>
        </g>
        <g id="Graphic_1199">
          <path d="M 546.37 287.9827 L 537.95 283.7416 L 537.95 309.13794 Z" fill="#fefefe"/>
        </g>
        <g id="Graphic_1198">
          <path d="M 550.58 634.96895 L 529.53 618.04475 L 516.89 643.43105 Z" fill="#eee"/>
        </g>
        <g id="Graphic_1197">
          <path d="M 525.32 677.2795 L 550.58 634.969 L 516.89 643.4311 Z" fill="#e9e9e9"/>
        </g>
        <g id="Graphic_1196">
          <path d="M 533.74 406.4621 L 563.21 381.0758 L 525.32 359.9105 Z" fill="#fdfdfd"/>
        </g>
        <g id="Graphic_1195">
          <path d="M 546.37 622.2758 L 537.95 558.79997 L 529.53 618.0447 Z" fill="#f3f3f3"/>
        </g>
        <g id="Graphic_1194">
          <path d="M 592.68 541.87576 L 580.05 486.86206 L 537.95 558.79996 Z" fill="#f1f1f1"/>
        </g>
        <g id="Graphic_1193">
          <path d="M 525.32 135.64478 L 529.53 93.32423 L 512.68 122.94158 Z" fill="#fefefe"/>
        </g>
        <g id="Graphic_1192">
          <path d="M 537.95 558.79996 L 580.05 486.86206 L 512.68 512.24836 Z" fill="#f5f5f5"/>
        </g>
        <g id="Graphic_1191">
          <path d="M 554.79 342.98632 L 537.95 309.13792 L 525.32 355.67947 Z" fill="#fefefe"/>
        </g>
        <g id="Graphic_1190">
          <path d="M 529.53 93.32417 L 567.42 51.01367 L 508.47 55.24472 Z" fill="#fefefe"/>
        </g>
        <g id="Graphic_1189">
          <path d="M 525.32 677.27944 L 516.89 643.43104 L 508.47 656.1242 Z" fill="#ebebeb"/>
        </g>
        <g id="Graphic_1188">
          <path d="M 537.95 715.3689 L 525.32 677.2794 L 508.47 694.2137 Z" fill="#dfdfdf"/>
        </g>
        <g id="Graphic_1187">
          <path d="M 580.05 486.8621 L 567.42 461.4758 L 512.68 512.2484 Z" fill="#f9f9f9"/>
        </g>
        <g id="Graphic_1186">
          <path d="M 567.42 461.4758 L 533.74 453.0137 L 512.68 512.2484 Z" fill="#fcfcfc"/>
        </g>
        <g id="Graphic_1185">
          <path d="M 512.68 512.2484 L 533.74 453.0137 L 504.26 495.3242 Z" fill="#fdfdfd"/>
        </g>
        <g id="Graphic_1184">
          <path d="M 567.42 51.01374 L 548.05 -3.999958 L 508.47 55.24479 Z" fill="#fefefe"/>
        </g>
        <g id="Graphic_1183">
          <path d="M 533.74 453.0137 L 533.74 406.4621 L 491.63 444.54157 Z" fill="#fefefe"/>
        </g>
        <g id="Graphic_1182">
          <path d="M 546.37 199.11053 L 525.32 135.64478 L 491.63 186.41738 Z" fill="#fefefe"/>
        </g>
        <g id="Graphic_1181">
          <path d="M 516.89 643.43105 L 529.53 618.04475 L 487.42 618.04475 Z" fill="#f2f2f2"/>
        </g>
        <g id="Graphic_1180">
          <path d="M 529.53 93.32419 L 508.47 55.244743 L 491.63 63.70684 Z" fill="#fefefe"/>
        </g>
        <g id="Graphic_1179">
          <path d="M 508.47 694.2137 L 525.32 677.2794 L 508.47 656.1242 Z" fill="#e9e9e9"/>
        </g>
        <g id="Graphic_1178">
          <path d="M 491.63 444.5415 L 533.74 406.46207 L 483.21 410.6931 Z" fill="#fefefe"/>
        </g>
        <g id="Graphic_1177">
          <path d="M 508.47 55.24479 L 548.05 -3.999958 L 483.21 8.693192 Z" fill="#fefefe"/>
        </g>
        <g id="Graphic_1176">
          <path d="M 504.26 495.32416 L 533.74 453.01366 L 491.63 444.5415 Z" fill="#fefefe"/>
        </g>
        <g id="Graphic_1175">
          <path d="M 533.74 249.89316 L 546.37 199.1105 L 491.63 186.41736 Z" fill="#fefefe"/>
        </g>
        <g id="Graphic_1174">
          <path d="M 546.37 736.5242 L 537.95 715.3689 L 525.32 770.3826 Z" fill="#ccc"/>
        </g>
        <g id="Graphic_1173">
          <path d="M 685.32 .23103093 L 715.63 -4.000019 L 632.26 -4.000019 Z" fill="#fcfcfc"/>
        </g>
        <g id="Graphic_1172">
          <path d="M 529.53 618.0448 L 537.95 558.8 L 474.79 579.9553 Z" fill="#f8f8f8"/>
        </g>
        <g id="Graphic_1171">
          <path d="M 487.42 618.0447 L 529.53 618.0447 L 474.79 579.9552 Z" fill="#f8f8f8"/>
        </g>
        <g id="Graphic_1170">
          <path d="M 533.74 406.46213 L 525.32 359.91053 L 483.21 410.6932 Z" fill="#fefefe"/>
        </g>
        <g id="Graphic_1169">
          <path d="M 508.47 656.1242 L 516.89 643.431 L 487.42 618.0447 Z" fill="#efefef"/>
        </g>
        <g id="Graphic_1168">
          <path d="M 483.21 410.6932 L 525.32 359.91053 L 470.58 393.769 Z" fill="#fefefe"/>
        </g>
        <g id="Graphic_1167">
          <path d="M 537.95 309.13794 L 537.95 283.7416 L 470.58 300.67584 Z" fill="#fefefe"/>
        </g>
        <g id="Graphic_1166">
          <path d="M 525.32 135.64477 L 512.68 122.94157 L 470.58 135.64477 Z" fill="#fefefe"/>
        </g>
        <g id="Graphic_1165">
          <path d="M 525.32 770.3826 L 537.95 715.3689 L 474.79 757.6794 Z" fill="#d3d3d3"/>
        </g>
        <g id="Graphic_1164">
          <path d="M 470.58 300.6758 L 537.95 283.74154 L 466.37 287.98264 Z" fill="#fefefe"/>
        </g>
        <g id="Graphic_1163">
          <path d="M 533.74 249.89316 L 491.63 186.41736 L 470.58 241.43106 Z" fill="#fefefe"/>
        </g>
        <g id="Graphic_1162">
          <path d="M 491.63 186.4174 L 525.32 135.6448 L 470.58 135.6448 Z" fill="#fefefe"/>
        </g>
        <g id="Graphic_1161">
          <path d="M 537.95 715.3689 L 508.47 694.2137 L 474.79 757.6794 Z" fill="#e2e2e2"/>
        </g>
        <g id="Graphic_1160">
          <path d="M 512.68 122.94159 L 529.53 93.32424 L 491.63 63.70689 Z" fill="#fefefe"/>
        </g>
        <g id="Graphic_1159">
          <path d="M 548.05 800 L 525.32 770.3826 L 464.68 800 Z" fill="#d9d9d9"/>
        </g>
        <g id="Graphic_1158">
          <path d="M 508.47 55.24478 L 483.21 8.693177 L 466.37 21.386327 Z" fill="#fefefe"/>
        </g>
        <g id="Graphic_1157">
          <path d="M 537.95 283.74153 L 533.74 249.89313 L 466.37 287.98263 Z" fill="#fefefe"/>
        </g>
        <g id="Graphic_1156">
          <path d="M 525.32 355.67942 L 537.95 309.13787 L 470.58 300.67577 Z" fill="#fefefe"/>
        </g>
        <g id="Graphic_1155">
          <path d="M 533.74 249.8932 L 470.58 241.4311 L 462.16 275.2795 Z" fill="#fefefe"/>
        </g>
        <g id="Graphic_1154">
          <path d="M 466.37 287.98263 L 533.74 249.89313 L 462.16 275.27943 Z" fill="#fefefe"/>
        </g>
        <g id="Graphic_1153">
          <path d="M 525.32 770.3826 L 474.79 757.6794 L 464.68 800 Z" fill="#ddd"/>
        </g>
        <g id="Graphic_1152">
          <path d="M 483.21 63.70682 L 491.63 63.70682 L 466.37 21.386273 Z" fill="#fefefe"/>
        </g>
        <g id="Graphic_1151">
          <path d="M 491.63 63.70682 L 508.47 55.24472 L 466.37 21.386273 Z" fill="#fefefe"/>
        </g>
        <g id="Graphic_1150">
          <path d="M 537.95 558.8 L 512.68 512.2484 L 474.79 579.9552 Z" fill="#f9f9f9"/>
        </g>
        <g id="Graphic_1149">
          <path d="M 491.63 186.4174 L 470.58 135.6448 L 457.95 148.33794 Z" fill="#fefefe"/>
        </g>
        <g id="Graphic_1148">
          <path d="M 466.37 21.386318 L 483.21 8.693168 L 464.68 -3.9999824 Z" fill="#fefefe"/>
        </g>
        <g id="Graphic_1147">
          <path d="M 470.58 135.64475 L 512.68 122.94155 L 453.74 89.09315 Z" fill="#fefefe"/>
        </g>
        <g id="Graphic_1146">
          <path d="M 512.68 122.94159 L 491.63 63.70689 L 453.74 89.09319 Z" fill="#fefefe"/>
        </g>
        <g id="Graphic_1145">
          <path d="M 491.63 63.70687 L 483.21 63.70687 L 453.74 89.09317 Z" fill="#fefefe"/>
        </g>
        <g id="Graphic_1144">
          <path d="M 512.68 512.24837 L 504.26 495.32417 L 453.74 520.71047 Z" fill="#fcfcfc"/>
        </g>
        <g id="Graphic_1143">
          <path d="M 470.58 135.64475 L 453.74 89.09315 L 449.53 110.2484 Z" fill="#fefefe"/>
        </g>
        <g id="Graphic_1142">
          <path d="M 491.63 186.41738 L 457.95 148.33793 L 449.53 169.49318 Z" fill="#fefefe"/>
        </g>
        <g id="Graphic_1141">
          <path d="M 470.58 241.4311 L 491.63 186.4174 L 449.53 224.5069 Z" fill="#fefefe"/>
        </g>
        <g id="Graphic_1140">
          <path d="M 474.79 579.9552 L 512.68 512.2484 L 453.74 520.7105 Z" fill="#fdfdfd"/>
        </g>
        <g id="Graphic_1139">
          <path d="M 483.21 8.693182 L 548.05 -3.999968 L 464.68 -3.999968 Z" fill="#fefefe"/>
        </g>
        <g id="Graphic_1138">
          <path d="M 525.32 359.9105 L 525.32 355.67944 L 470.58 393.76894 Z" fill="#fefefe"/>
        </g>
        <g id="Graphic_1137">
          <path d="M 466.37 21.386318 L 464.68 -3.9999824 L 445.32 4.4621176 Z" fill="#fefefe"/>
        </g>
        <g id="Graphic_1136">
          <path d="M 504.26 495.32416 L 491.63 444.5415 L 441.11 474.1689 Z" fill="#fefefe"/>
        </g>
        <g id="Graphic_1135">
          <path d="M 508.47 656.1242 L 487.42 618.0447 L 441.11 656.1242 Z" fill="#f3f3f3"/>
        </g>
        <g id="Graphic_1134">
          <path d="M 474.79 757.6794 L 508.47 694.2137 L 441.11 723.831 Z" fill="#dbdbdb"/>
        </g>
        <g id="Graphic_1133">
          <path d="M 474.79 757.6794 L 441.11 723.831 L 436.89 740.7552 Z" fill="#e5e5e5"/>
        </g>
        <g id="Graphic_1132">
          <path d="M 453.74 520.7105 L 504.26 495.3242 L 441.11 474.16897 Z" fill="#fefefe"/>
        </g>
        <g id="Graphic_1131">
          <path d="M 449.53 110.24843 L 453.74 89.09318 L 441.11 89.09318 Z" fill="#fefefe"/>
        </g>
        <g id="Graphic_1130">
          <path d="M 508.47 694.2137 L 508.47 656.1242 L 441.11 656.1242 Z" fill="#efefef"/>
        </g>
        <g id="Graphic_1129">
          <path d="M 457.95 148.33792 L 470.58 135.64477 L 449.53 110.24842 Z" fill="#fefefe"/>
        </g>
        <g id="Graphic_1128">
          <path d="M 449.53 224.50687 L 491.63 186.41737 L 449.53 169.49317 Z" fill="#fefefe"/>
        </g>
        <g id="Graphic_1127">
          <path d="M 525.32 355.67947 L 470.58 300.67582 L 470.58 393.76897 Z" fill="#fefefe"/>
        </g>
        <g id="Graphic_1126">
          <path d="M 428.47 194.87947 L 449.53 169.49317 L 428.47 177.95527 Z" fill="#fefefe"/>
        </g>
        <g id="Graphic_1125">
          <path d="M 449.53 224.50687 L 449.53 169.49317 L 428.47 194.87947 Z" fill="#fefefe"/>
        </g>
        <g id="Graphic_1124">
          <path d="M 470.58 241.43105 L 449.53 224.50685 L 428.47 237.2 Z" fill="#fefefe"/>
        </g>
        <g id="Graphic_1123">
          <path d="M 441.11 723.831 L 508.47 694.2137 L 441.11 656.1242 Z" fill="#ececec"/>
        </g>
        <g id="Graphic_1122">
          <path d="M 483.21 410.6931 L 470.58 393.7689 L 424.26 406.46206 Z" fill="#fefefe"/>
        </g>
        <g id="Graphic_1121">
          <path d="M 441.11 723.831 L 441.11 656.1242 L 424.26 702.6758 Z" fill="#eee"/>
        </g>
        <g id="Graphic_1120">
          <path d="M 441.11 474.16896 L 491.63 444.54156 L 428.47 461.4758 Z" fill="#fefefe"/>
        </g>
        <g id="Graphic_1119">
          <path d="M 462.16 275.27946 L 470.58 241.43106 L 428.47 237.2 Z" fill="#fefefe"/>
        </g>
        <g id="Graphic_1118">
          <path d="M 466.37 21.386329 L 445.32 4.4621287 L 420.05 29.84843 Z" fill="#fefefe"/>
        </g>
        <g id="Graphic_1117">
          <path d="M 491.63 444.54156 L 483.21 410.69316 L 428.47 461.4758 Z" fill="#fefefe"/>
        </g>
        <g id="Graphic_1116">
          <path d="M 428.47 461.4758 L 424.26 406.4621 L 415.84 444.54153 Z" fill="#fefefe"/>
        </g>
        <g id="Graphic_1115">
          <path d="M 428.47 194.87943 L 428.47 177.95523 L 415.84 182.18628 Z" fill="#fefefe"/>
        </g>
        <g id="Graphic_1114">
          <path d="M 453.74 89.09318 L 466.37 21.386335 L 420.05 29.848435 Z" fill="#fefefe"/>
        </g>
        <g id="Graphic_1113">
          <path d="M 428.47 461.4758 L 483.21 410.69313 L 424.26 406.4621 Z" fill="#fefefe"/>
        </g>
        <g id="Graphic_1112">
          <path d="M 464.68 800 L 474.79 757.6794 L 436.89 740.7552 Z" fill="#dbdbdb"/>
        </g>
        <g id="Graphic_1111">
          <path d="M 483.21 63.706885 L 466.37 21.386335 L 453.74 89.09318 Z" fill="#fefefe"/>
        </g>
        <g id="Graphic_1110">
          <path d="M 449.53 110.24843 L 441.11 89.09318 L 411.63 106.01738 Z" fill="#fefefe"/>
        </g>
        <g id="Graphic_1109">
          <path d="M 441.11 89.09315 L 411.63 93.3242 L 411.63 106.01735 Z" fill="#fefefe"/>
        </g>
        <g id="Graphic_1108">
          <path d="M 462.16 275.27946 L 428.47 237.2 L 411.63 271.0484 Z" fill="#fefefe"/>
        </g>
        <g id="Graphic_1107">
          <path d="M 436.89 740.7552 L 441.11 723.831 L 420.05 744.9863 Z" fill="#e8e8e8"/>
        </g>
        <g id="Graphic_1106">
          <path d="M 441.11 89.09314 L 453.74 89.09314 L 420.05 29.848395 Z" fill="#fefefe"/>
        </g>
        <g id="Graphic_1105">
          <path d="M 428.47 237.19998 L 449.53 224.50683 L 428.47 194.87943 Z" fill="#fefefe"/>
        </g>
        <g id="Graphic_1104">
          <path d="M 441.11 89.09314 L 420.05 29.848395 L 407.42 67.937895 Z" fill="#fefefe"/>
        </g>
        <g id="Graphic_1103">
          <path d="M 411.63 93.32418 L 441.11 89.09313 L 407.42 67.93788 Z" fill="#fefefe"/>
        </g>
        <g id="Graphic_1102">
          <path d="M 464.68 800 L 436.89 740.7552 L 407.42 770.3826 Z" fill="#d7d7d7"/>
        </g>
        <g id="Graphic_1101">
          <path d="M 436.89 740.7552 L 420.05 744.9863 L 407.42 770.3826 Z" fill="#e9e9e9"/>
        </g>
        <g id="Graphic_1100">
          <path d="M 466.37 287.98267 L 462.16 275.27947 L 411.63 271.04842 Z" fill="#fefefe"/>
        </g>
        <g id="Graphic_1099">
          <path d="M 470.58 300.67582 L 466.37 287.98267 L 403.21 296.44477 Z" fill="#fefefe"/>
        </g>
        <g id="Graphic_1098">
          <path d="M 466.37 287.98263 L 411.63 271.04838 L 403.21 296.44473 Z" fill="#fefefe"/>
        </g>
        <g id="Graphic_1097">
          <path d="M 449.53 169.49313 L 457.95 148.33788 L 428.47 177.95523 Z" fill="#fefefe"/>
        </g>
        <g id="Graphic_1096">
          <path d="M 487.42 618.0448 L 474.79 579.9553 L 441.11 656.1242 Z" fill="#f8f8f8"/>
        </g>
        <g id="Graphic_1095">
          <path d="M 415.84 444.5415 L 424.26 406.46207 L 399 427.6173 Z" fill="#fefefe"/>
        </g>
        <g id="Graphic_1094">
          <path d="M 441.11 723.8311 L 424.26 702.6758 L 420.05 744.9863 Z" fill="#eaeaea"/>
        </g>
        <g id="Graphic_1093">
          <path d="M 464.68 800 L 407.42 770.3826 L 394.79 795.7689 Z" fill="#ddd"/>
        </g>
        <g id="Graphic_1092">
          <path d="M 457.95 148.3379 L 449.53 110.2484 L 411.63 106.01735 Z" fill="#fefefe"/>
        </g>
        <g id="Graphic_1091">
          <path d="M 415.84 444.54155 L 399 427.61735 L 390.58 431.8484 Z" fill="#fefefe"/>
        </g>
        <g id="Graphic_1090">
          <path d="M 428.47 177.95524 L 457.95 148.3379 L 411.63 106.01734 Z" fill="#fefefe"/>
        </g>
        <g id="Graphic_1089">
          <path d="M 420.05 29.848377 L 445.32 4.4620774 L 380.47 -4.0000226 Z" fill="#fefefe"/>
        </g>
        <g id="Graphic_1088">
          <path d="M 407.42 67.93786 L 420.05 29.848358 L 382.16 59.47576 Z" fill="#fefefe"/>
        </g>
        <g id="Graphic_1087">
          <path d="M 470.58 393.76895 L 470.58 300.6758 L 403.21 296.44475 Z" fill="#fefefe"/>
        </g>
        <g id="Graphic_1086">
          <path d="M 424.26 406.4621 L 470.58 393.76893 L 403.21 296.44473 Z" fill="#fefefe"/>
        </g>
        <g id="Graphic_1085">
          <path d="M 453.74 520.7105 L 441.11 474.16893 L 377.95 529.18263 Z" fill="#fefefe"/>
        </g>
        <g id="Graphic_1084">
          <path d="M 415.84 182.18632 L 428.47 177.95527 L 411.63 106.01737 Z" fill="#fefefe"/>
        </g>
        <g id="Graphic_1083">
          <path d="M 441.11 474.1689 L 428.47 461.47577 L 369.53 495.3242 Z" fill="#fefefe"/>
        </g>
        <g id="Graphic_1082">
          <path d="M 377.95 529.18263 L 441.11 474.16893 L 369.53 495.3242 Z" fill="#fefefe"/>
        </g>
        <g id="Graphic_1081">
          <path d="M 411.63 271.04843 L 428.47 237.20003 L 365.32 228.73793 Z" fill="#fefefe"/>
        </g>
        <g id="Graphic_1080">
          <path d="M 428.47 237.19998 L 428.47 194.87943 L 365.32 228.73788 Z" fill="#fefefe"/>
        </g>
        <g id="Graphic_1079">
          <path d="M 428.47 194.87948 L 415.84 182.18633 L 365.32 228.73793 Z" fill="#fefefe"/>
        </g>
        <g id="Graphic_1078">
          <path d="M 428.47 461.4758 L 415.84 444.5415 L 365.32 482.631 Z" fill="#fefefe"/>
        </g>
        <g id="Graphic_1077">
          <path d="M 369.53 495.3242 L 428.47 461.47577 L 365.32 482.631 Z" fill="#fefefe"/>
        </g>
        <g id="Graphic_1076">
          <path d="M 415.84 182.18632 L 411.63 106.01737 L 373.74 173.72422 Z" fill="#fefefe"/>
        </g>
        <g id="Graphic_1075">
          <path d="M 474.79 579.9553 L 453.74 520.7105 L 377.95 529.1827 Z" fill="#fdfdfd"/>
        </g>
        <g id="Graphic_1074">
          <path d="M 411.63 93.32422 L 407.42 67.93792 L 382.16 59.47582 Z" fill="#fefefe"/>
        </g>
        <g id="Graphic_1073">
          <path d="M 415.84 444.54154 L 390.58 431.8484 L 365.32 482.63104 Z" fill="#fefefe"/>
        </g>
        <g id="Graphic_1072">
          <path d="M 474.79 579.95523 L 377.95 529.18263 L 356.89 571.49313 Z" fill="#fdfdfd"/>
        </g>
        <g id="Graphic_1071">
          <path d="M 411.63 106.01734 L 411.63 93.32419 L 356.89 114.47944 Z" fill="#fefefe"/>
        </g>
        <g id="Graphic_1070">
          <path d="M 415.84 182.18628 L 373.74 173.72418 L 365.32 228.73788 Z" fill="#fefefe"/>
        </g>
        <g id="Graphic_1069">
          <path d="M 394.79 795.7689 L 407.42 770.3826 L 380.47 800 Z" fill="#e9e9e9"/>
        </g>
        <g id="Graphic_1068">
          <path d="M 382.16 59.475776 L 420.05 29.848376 L 380.47 -4.000024 Z" fill="#fefefe"/>
        </g>
        <g id="Graphic_1067">
          <path d="M 365.32 482.63104 L 390.58 431.8484 L 352.68 453.0137 Z" fill="#fefefe"/>
        </g>
        <g id="Graphic_1066">
          <path d="M 411.63 93.32418 L 382.16 59.47578 L 352.68 101.78628 Z" fill="#fefefe"/>
        </g>
        <g id="Graphic_1065">
          <path d="M 356.89 114.47944 L 411.63 93.32419 L 352.68 101.78629 Z" fill="#fefefe"/>
        </g>
        <g id="Graphic_1064">
          <path d="M 441.11 656.1242 L 474.79 579.9552 L 356.89 571.4931 Z" fill="#fdfdfd"/>
        </g>
        <g id="Graphic_1063">
          <path d="M 373.74 173.72417 L 411.63 106.01732 L 356.89 114.47942 Z" fill="#fefefe"/>
        </g>
        <g id="Graphic_1062">
          <path d="M 424.26 702.6758 L 441.11 656.12424 L 348.47 656.12424 Z" fill="#f5f5f5"/>
        </g>
        <g id="Graphic_1061">
          <path d="M 356.89 169.49317 L 373.74 173.72422 L 356.89 114.47947 Z" fill="#fefefe"/>
        </g>
        <g id="Graphic_1060">
          <path d="M 382.16 59.475776 L 380.47 -4.000024 L 361.11 .23102615 Z" fill="#fefefe"/>
        </g>
        <g id="Graphic_1059">
          <path d="M 445.32 4.4621065 L 464.68 -3.9999935 L 380.47 -3.9999935 Z" fill="#fefefe"/>
        </g>
        <g id="Graphic_1058">
          <path d="M 377.95 529.1827 L 369.53 495.3242 L 340.05 512.2484 Z" fill="#fefefe"/>
        </g>
        <g id="Graphic_1057">
          <path d="M 356.89 169.49314 L 356.89 114.47944 L 335.84 139.8758 Z" fill="#fefefe"/>
        </g>
        <g id="Graphic_1056">
          <path d="M 382.16 59.4758 L 361.11 .23105176 L 340.05 12.924202 Z" fill="#fefefe"/>
        </g>
        <g id="Graphic_1055">
          <path d="M 365.32 482.6311 L 352.68 453.01373 L 348.47 453.01373 Z" fill="#fefefe"/>
        </g>
        <g id="Graphic_1054">
          <path d="M 441.11 656.1242 L 356.89 571.4931 L 348.47 656.1242 Z" fill="#fbfbfb"/>
        </g>
        <g id="Graphic_1053">
          <path d="M 403.21 296.44473 L 411.63 271.04838 L 331.63 279.51048 Z" fill="#fefefe"/>
        </g>
        <g id="Graphic_1052">
          <path d="M 411.63 271.0484 L 365.32 228.73789 L 331.63 279.5105 Z" fill="#fefefe"/>
        </g>
        <g id="Graphic_1051">
          <path d="M 365.32 228.73789 L 335.84 245.6621 L 331.63 279.5105 Z" fill="#fefefe"/>
        </g>
        <g id="Graphic_1050">
          <path d="M 369.53 495.3242 L 365.32 482.63107 L 340.05 512.2484 Z" fill="#fefefe"/>
        </g>
        <g id="Graphic_1049">
          <path d="M 365.32 228.73786 L 373.74 173.72416 L 356.89 169.4931 Z" fill="#fefefe"/>
        </g>
        <g id="Graphic_1048">
          <path d="M 356.89 169.49312 L 335.84 139.87577 L 327.42 169.49312 Z" fill="#fefefe"/>
        </g>
        <g id="Graphic_1047">
          <path d="M 390.58 431.8484 L 399 427.61736 L 327.42 381.0758 Z" fill="#fefefe"/>
        </g>
        <g id="Graphic_1046">
          <path d="M 399 427.61734 L 424.26 406.4621 L 327.42 381.0758 Z" fill="#fefefe"/>
        </g>
        <g id="Graphic_1045">
          <path d="M 348.47 656.1242 L 356.89 571.4931 L 323.21 622.2758 Z" fill="#f9f9f9"/>
        </g>
        <g id="Graphic_1044">
          <path d="M 424.26 406.4621 L 403.21 296.44473 L 327.42 381.0758 Z" fill="#fefefe"/>
        </g>
        <g id="Graphic_1043">
          <path d="M 380.47 800 L 407.42 770.3826 L 331.63 791.5379 Z" fill="#e3e3e3"/>
        </g>
        <g id="Graphic_1042">
          <path d="M 356.89 571.49316 L 377.95 529.18266 L 340.05 512.2484 Z" fill="#fefefe"/>
        </g>
        <g id="Graphic_1041">
          <path d="M 365.32 482.6311 L 348.47 453.01373 L 314.79 474.169 Z" fill="#fefefe"/>
        </g>
        <g id="Graphic_1040">
          <path d="M 340.05 512.24837 L 365.32 482.631 L 314.79 474.1689 Z" fill="#fefefe"/>
        </g>
        <g id="Graphic_1039">
          <path d="M 407.42 770.3826 L 420.05 744.9863 L 314.79 744.9863 Z" fill="#e9e9e9"/>
        </g>
        <g id="Graphic_1038">
          <path d="M 331.63 791.5379 L 407.42 770.3827 L 314.79 744.9863 Z" fill="#d9d9d9"/>
        </g>
        <g id="Graphic_1037">
          <path d="M 314.79 770.3827 L 331.63 791.5379 L 314.79 744.9863 Z" fill="#d5d5d5"/>
        </g>
        <g id="Graphic_1036">
          <path d="M 323.21 622.27584 L 356.89 571.4932 L 314.79 605.3416 Z" fill="#f9f9f9"/>
        </g>
        <g id="Graphic_1035">
          <path d="M 382.16 59.47579 L 340.05 12.924187 L 314.79 46.782637 Z" fill="#fefefe"/>
        </g>
        <g id="Graphic_1034">
          <path d="M 331.63 279.5105 L 335.84 245.6621 L 323.21 245.6621 Z" fill="#fefefe"/>
        </g>
        <g id="Graphic_1033">
          <path d="M 352.68 453.01366 L 390.58 431.84836 L 327.42 381.07576 Z" fill="#fefefe"/>
        </g>
        <g id="Graphic_1032">
          <path d="M 348.47 453.01366 L 352.68 453.01366 L 327.42 381.07576 Z" fill="#fefefe"/>
        </g>
        <g id="Graphic_1031">
          <path d="M 348.47 656.1242 L 323.21 622.2758 L 310.58 651.89316 Z" fill="#f5f5f5"/>
        </g>
        <g id="Graphic_1030">
          <path d="M 420.05 744.9863 L 424.26 702.6758 L 314.79 744.9863 Z" fill="#ebebeb"/>
        </g>
        <g id="Graphic_1029">
          <path d="M 352.68 101.78629 L 382.16 59.47579 L 314.79 46.782643 Z" fill="#fefefe"/>
        </g>
        <g id="Graphic_1028">
          <path d="M 327.42 169.49312 L 335.84 139.87577 L 323.21 169.49312 Z" fill="#fefefe"/>
        </g>
        <g id="Graphic_1027">
          <path d="M 365.32 228.73786 L 356.89 169.4931 L 327.42 169.4931 Z" fill="#fefefe"/>
        </g>
        <g id="Graphic_1026">
          <path d="M 356.89 114.47946 L 352.68 101.78631 L 335.84 139.87581 Z" fill="#fefefe"/>
        </g>
        <g id="Graphic_1025">
          <path d="M 314.79 605.3416 L 356.89 571.4932 L 306.37 592.6484 Z" fill="#fafafa"/>
        </g>
        <g id="Graphic_1024">
          <path d="M 331.63 791.5379 L 314.79 770.3827 L 306.37 795.769 Z" fill="#d1d1d1"/>
        </g>
        <g id="Graphic_1023">
          <path d="M 424.26 702.6758 L 348.47 656.1242 L 314.79 744.9863 Z" fill="#ececec"/>
        </g>
        <g id="Graphic_1022">
          <path d="M 314.79 46.78265 L 340.05 12.924202 L 302.16 17.155252 Z" fill="#fefefe"/>
        </g>
        <g id="Graphic_1021">
          <path d="M 323.21 245.66206 L 335.84 245.66206 L 302.16 228.73786 Z" fill="#fefefe"/>
        </g>
        <g id="Graphic_1020">
          <path d="M 352.68 101.78629 L 314.79 46.782643 L 302.16 80.63104 Z" fill="#fefefe"/>
        </g>
        <g id="Graphic_1019">
          <path d="M 323.21 169.49312 L 335.84 139.87577 L 302.16 148.33787 Z" fill="#fefefe"/>
        </g>
        <g id="Graphic_1018">
          <path d="M 403.21 296.44475 L 331.63 279.5105 L 327.42 381.0758 Z" fill="#fefefe"/>
        </g>
        <g id="Graphic_1017">
          <path d="M 464.68 800 L 394.79 795.769 L 380.47 800 Z" fill="#ececec"/>
        </g>
        <g id="Graphic_1016">
          <path d="M 302.16 17.155242 L 340.05 12.924192 L 297.11 -4.000008 Z" fill="#fefefe"/>
        </g>
        <g id="Graphic_1015">
          <path d="M 335.84 245.66206 L 365.32 228.73786 L 302.16 228.73786 Z" fill="#fefefe"/>
        </g>
        <g id="Graphic_1014">
          <path d="M 365.32 228.73786 L 327.42 169.4931 L 302.16 228.73786 Z" fill="#fefefe"/>
        </g>
        <g id="Graphic_1013">
          <path d="M 356.89 571.49316 L 340.05 512.2484 L 293.74 524.94156 Z" fill="#fdfdfd"/>
        </g>
        <g id="Graphic_1012">
          <path d="M 323.21 169.49317 L 302.16 148.33792 L 293.74 165.26212 Z" fill="#fefefe"/>
        </g>
        <g id="Graphic_1011">
          <path d="M 340.05 12.924166 L 361.11 .23101637 L 297.11 -4.0000336 Z" fill="#fefefe"/>
        </g>
        <g id="Graphic_1010">
          <path d="M 327.42 169.4931 L 323.21 169.4931 L 302.16 228.73786 Z" fill="#fefefe"/>
        </g>
        <g id="Graphic_1009">
          <path d="M 335.84 139.87577 L 352.68 101.78627 L 302.16 80.63102 Z" fill="#fefefe"/>
        </g>
        <g id="Graphic_1008">
          <path d="M 302.16 17.155242 L 297.11 -4.000008 L 285.32 17.155242 Z" fill="#fefefe"/>
        </g>
        <g id="Graphic_1007">
          <path d="M 340.05 512.24835 L 314.79 474.1689 L 293.74 524.9415 Z" fill="#fdfdfd"/>
        </g>
        <g id="Graphic_1006">
          <path d="M 331.63 279.5105 L 323.21 245.6621 L 281.11 266.81735 Z" fill="#fefefe"/>
        </g>
        <g id="Graphic_1005">
          <path d="M 306.37 592.6484 L 356.89 571.4932 L 293.74 524.9416 Z" fill="#fcfcfc"/>
        </g>
        <g id="Graphic_1004">
          <path d="M 297.11 800 L 306.37 795.769 L 293.74 800 Z" fill="#bababa"/>
        </g>
        <g id="Graphic_1003">
          <path d="M 323.21 245.6621 L 302.16 228.7379 L 281.11 266.81735 Z" fill="#fefefe"/>
        </g>
        <g id="Graphic_1002">
          <path d="M 314.79 46.78268 L 302.16 17.155277 L 285.32 17.155277 Z" fill="#fefefe"/>
        </g>
        <g id="Graphic_1001">
          <path d="M 306.37 795.7689 L 314.79 770.3826 L 293.74 800 Z" fill="#cfcfcf"/>
        </g>
        <g id="Graphic_1000">
          <path d="M 302.16 228.73792 L 323.21 169.49317 L 293.74 165.26212 Z" fill="#fefefe"/>
        </g>
        <g id="Graphic_999">
          <path d="M 302.16 148.33793 L 335.84 139.87583 L 302.16 80.63108 Z" fill="#fefefe"/>
        </g>
        <g id="Graphic_998">
          <path d="M 314.79 744.9863 L 348.47 656.1242 L 310.58 651.89315 Z" fill="#ececec"/>
        </g>
        <g id="Graphic_997">
          <path d="M 302.16 228.73792 L 293.74 165.26212 L 268.47 177.95527 Z" fill="#fefefe"/>
        </g>
        <g id="Graphic_996">
          <path d="M 314.79 46.78268 L 285.32 17.155277 L 276.89 21.386327 Z" fill="#fefefe"/>
        </g>
        <g id="Graphic_995">
          <path d="M 331.63 791.5379 L 306.37 795.7689 L 297.11 800 Z" fill="#cecece"/>
        </g>
        <g id="Graphic_994">
          <path d="M 323.21 622.2758 L 314.79 605.3415 L 310.58 651.8931 Z" fill="#f7f7f7"/>
        </g>
        <g id="Graphic_993">
          <path d="M 348.47 453.0137 L 327.42 381.0758 L 314.79 474.16895 Z" fill="#fefefe"/>
        </g>
        <g id="Graphic_992">
          <path d="M 314.79 605.3415 L 306.37 592.6484 L 255.84 601.1105 Z" fill="#f9f9f9"/>
        </g>
        <g id="Graphic_991">
          <path d="M 314.79 744.9863 L 310.58 651.89315 L 260.05 719.6 Z" fill="#dfdfdf"/>
        </g>
        <g id="Graphic_990">
          <path d="M 314.79 474.16895 L 327.42 381.0758 L 260.05 402.23105 Z" fill="#fefefe"/>
        </g>
        <g id="Graphic_989">
          <path d="M 302.16 80.63103 L 314.79 46.782634 L 276.89 21.386284 Z" fill="#fefefe"/>
        </g>
        <g id="Graphic_988">
          <path d="M 293.74 165.26208 L 302.16 148.33788 L 247.42 131.41368 Z" fill="#fefefe"/>
        </g>
        <g id="Graphic_987">
          <path d="M 302.16 148.33792 L 247.42 110.24842 L 247.42 131.41372 Z" fill="#fefefe"/>
        </g>
        <g id="Graphic_986">
          <path d="M 302.16 148.33793 L 302.16 80.63108 L 247.42 110.24843 Z" fill="#fefefe"/>
        </g>
        <g id="Graphic_985">
          <path d="M 310.58 651.8932 L 314.79 605.3416 L 255.84 601.1105 Z" fill="#f6f6f6"/>
        </g>
        <g id="Graphic_984">
          <path d="M 302.16 228.7379 L 268.47 177.95526 L 243.21 211.8137 Z" fill="#fefefe"/>
        </g>
        <g id="Graphic_983">
          <path d="M 268.47 177.95522 L 293.74 165.26207 L 247.42 131.41367 Z" fill="#fefefe"/>
        </g>
        <g id="Graphic_982">
          <path d="M 310.58 651.8931 L 255.84 601.1105 L 247.42 656.1242 Z" fill="#f1f1f1"/>
        </g>
        <g id="Graphic_981">
          <path d="M 285.32 17.155268 L 297.11 -3.9999824 L 276.89 21.386318 Z" fill="#fefefe"/>
        </g>
        <g id="Graphic_980">
          <path d="M 293.74 524.9415 L 314.79 474.1689 L 239 478.39995 Z" fill="#fcfcfc"/>
        </g>
        <g id="Graphic_979">
          <path d="M 268.47 177.95525 L 243.21 182.1863 L 243.21 211.8137 Z" fill="#fefefe"/>
        </g>
        <g id="Graphic_978">
          <path d="M 260.05 719.6 L 310.58 651.8932 L 247.42 656.1242 Z" fill="#e5e5e5"/>
        </g>
        <g id="Graphic_977">
          <path d="M 293.74 524.9415 L 239 478.4 L 234.79 495.3242 Z" fill="#f9f9f9"/>
        </g>
        <g id="Graphic_976">
          <path d="M 243.21 211.81372 L 243.21 182.18632 L 234.79 203.34157 Z" fill="#fefefe"/>
        </g>
        <g id="Graphic_975">
          <path d="M 281.11 266.81734 L 302.16 228.7379 L 243.21 211.8137 Z" fill="#fefefe"/>
        </g>
        <g id="Graphic_974">
          <path d="M 306.37 592.6484 L 293.74 524.94154 L 255.84 601.1105 Z" fill="#fafafa"/>
        </g>
        <g id="Graphic_973">
          <path d="M 314.79 770.3827 L 314.79 744.9863 L 260.05 719.6 Z" fill="#d6d6d6"/>
        </g>
        <g id="Graphic_972">
          <path d="M 380.47 800 L 331.63 791.5379 L 297.11 800 Z" fill="#d5d5d5"/>
        </g>
        <g id="Graphic_971">
          <path d="M 281.11 266.81734 L 243.21 211.8137 L 230.58 241.43104 Z" fill="#fefefe"/>
        </g>
        <g id="Graphic_970">
          <path d="M 243.21 279.51047 L 281.11 266.81732 L 230.58 241.43102 Z" fill="#fefefe"/>
        </g>
        <g id="Graphic_969">
          <path d="M 314.79 474.169 L 260.05 402.2311 L 234.79 423.38633 Z" fill="#fdfdfd"/>
        </g>
        <g id="Graphic_968">
          <path d="M 239 478.4 L 314.79 474.16895 L 234.79 423.3863 Z" fill="#fdfdfd"/>
        </g>
        <g id="Graphic_967">
          <path d="M 293.74 800 L 314.79 770.3826 L 234.79 783.0758 Z" fill="#b7b7b7"/>
        </g>
        <g id="Graphic_966">
          <path d="M 314.79 770.38265 L 260.05 719.6 L 234.79 783.0758 Z" fill="#c6c6c6"/>
        </g>
        <g id="Graphic_965">
          <path d="M 327.42 381.0758 L 331.63 279.5105 L 281.11 266.81736 Z" fill="#fefefe"/>
        </g>
        <g id="Graphic_964">
          <path d="M 234.79 203.34152 L 243.21 182.18627 L 226.37 182.18627 Z" fill="#fefefe"/>
        </g>
        <g id="Graphic_963">
          <path d="M 239 478.4 L 234.79 423.3863 L 230.58 474.16895 Z" fill="#fdfdfd"/>
        </g>
        <g id="Graphic_962">
          <path d="M 234.79 495.32416 L 239 478.39996 L 230.58 474.1689 Z" fill="#fbfbfb"/>
        </g>
        <g id="Graphic_961">
          <path d="M 268.47 177.95524 L 247.42 131.41369 L 243.21 182.1863 Z" fill="#fefefe"/>
        </g>
        <g id="Graphic_960">
          <path d="M 243.21 279.51047 L 230.58 241.43102 L 217.95 258.35522 Z" fill="#fefefe"/>
        </g>
        <g id="Graphic_959">
          <path d="M 327.42 381.0758 L 281.11 266.81736 L 243.21 279.5105 Z" fill="#fefefe"/>
        </g>
        <g id="Graphic_958">
          <path d="M 243.21 182.1863 L 247.42 131.41369 L 213.74 156.8 Z" fill="#fefefe"/>
        </g>
        <g id="Graphic_957">
          <path d="M 226.37 182.18626 L 243.21 182.18626 L 213.74 156.79996 Z" fill="#fefefe"/>
        </g>
        <g id="Graphic_956">
          <path d="M 276.89 21.386318 L 297.11 -3.9999824 L 212.89 -3.9999824 Z" fill="#fefefe"/>
        </g>
        <g id="Graphic_955">
          <path d="M 230.58 474.1689 L 234.79 423.3863 L 213.74 440.3105 Z" fill="#fcfcfc"/>
        </g>
        <g id="Graphic_954">
          <path d="M 260.05 402.2311 L 327.42 381.07584 L 243.21 279.51054 Z" fill="#fefefe"/>
        </g>
        <g id="Graphic_953">
          <path d="M 302.16 80.63103 L 276.89 21.38628 L 247.42 110.24838 Z" fill="#fefefe"/>
        </g>
        <g id="Graphic_952">
          <path d="M 247.42 110.24838 L 276.89 21.38628 L 209.53 76.39998 Z" fill="#fefefe"/>
        </g>
        <g id="Graphic_951">
          <path d="M 243.21 211.8137 L 234.79 203.34154 L 205.32 216.04474 Z" fill="#fefefe"/>
        </g>
        <g id="Graphic_950">
          <path d="M 230.58 241.43107 L 243.21 211.81372 L 205.32 216.04477 Z" fill="#fefefe"/>
        </g>
        <g id="Graphic_949">
          <path d="M 260.05 719.6 L 247.42 656.12416 L 209.53 719.6 Z" fill="#dedede"/>
        </g>
        <g id="Graphic_948">
          <path d="M 234.79 783.0758 L 260.05 719.6 L 209.53 719.6 Z" fill="#c7c7c7"/>
        </g>
        <g id="Graphic_947">
          <path d="M 293.74 800 L 234.79 783.0758 L 212.89 800 Z" fill="#b0b0b0"/>
        </g>
        <g id="Graphic_946">
          <path d="M 234.79 423.38626 L 260.05 402.231 L 196.89 381.07576 Z" fill="#fefefe"/>
        </g>
        <g id="Graphic_945">
          <path d="M 234.79 203.3415 L 226.37 182.18626 L 205.32 216.0447 Z" fill="#fefefe"/>
        </g>
        <g id="Graphic_944">
          <path d="M 226.37 182.18626 L 213.74 156.79996 L 196.89 161.03101 Z" fill="#fefefe"/>
        </g>
        <g id="Graphic_943">
          <path d="M 255.84 601.1105 L 293.74 524.94154 L 196.89 524.94154 Z" fill="#f6f6f6"/>
        </g>
        <g id="Graphic_942">
          <path d="M 293.74 524.94154 L 234.79 495.3242 L 196.89 524.94154 Z" fill="#f7f7f7"/>
        </g>
        <g id="Graphic_941">
          <path d="M 217.95 258.3552 L 205.32 216.04471 L 188.47 254.12416 Z" fill="#fefefe"/>
        </g>
        <g id="Graphic_940">
          <path d="M 209.53 76.39999 L 212.89 -4.000013 L 192.68 59.47579 Z" fill="#fefefe"/>
        </g>
        <g id="Graphic_939">
          <path d="M 247.42 656.1242 L 255.84 601.1105 L 196.89 656.1242 Z" fill="#e9e9e9"/>
        </g>
        <g id="Graphic_938">
          <path d="M 209.53 719.6 L 247.42 656.12416 L 196.89 656.12416 Z" fill="#e0e0e0"/>
        </g>
        <g id="Graphic_937">
          <path d="M 260.05 402.2311 L 243.21 279.51054 L 196.89 381.07584 Z" fill="#fefefe"/>
        </g>
        <g id="Graphic_936">
          <path d="M 217.95 258.3552 L 230.58 241.431 L 205.32 216.04471 Z" fill="#fefefe"/>
        </g>
        <g id="Graphic_935">
          <path d="M 276.89 21.386287 L 212.89 -4.000013 L 209.53 76.39999 Z" fill="#fefefe"/>
        </g>
        <g id="Graphic_934">
          <path d="M 361.11 .23103093 L 380.47 -4.000019 L 297.11 -4.000019 Z" fill="#fefefe"/>
        </g>
        <g id="Graphic_933">
          <path d="M 213.74 440.31047 L 234.79 423.38627 L 196.89 381.07577 Z" fill="#fefefe"/>
        </g>
        <g id="Graphic_932">
          <path d="M 247.42 131.41368 L 247.42 110.24838 L 213.74 156.79998 Z" fill="#fefefe"/>
        </g>
        <g id="Graphic_931">
          <path d="M 230.58 474.16894 L 213.74 440.3105 L 175.84 474.16894 Z" fill="#fcfcfc"/>
        </g>
        <g id="Graphic_930">
          <path d="M 180.05 93.32422 L 192.68 59.47582 L 175.84 89.09317 Z" fill="#fefefe"/>
        </g>
        <g id="Graphic_929">
          <path d="M 209.53 76.40002 L 192.68 59.47582 L 180.05 93.32422 Z" fill="#fefefe"/>
        </g>
        <g id="Graphic_928">
          <path d="M 247.42 110.24844 L 209.53 76.40004 L 180.05 93.32424 Z" fill="#fefefe"/>
        </g>
        <g id="Graphic_927">
          <path d="M 205.32 216.04476 L 226.37 182.18631 L 196.89 161.03106 Z" fill="#fefefe"/>
        </g>
        <g id="Graphic_926">
          <path d="M 234.79 495.32416 L 230.58 474.1689 L 175.84 474.1689 Z" fill="#fafafa"/>
        </g>
        <g id="Graphic_925">
          <path d="M 196.89 524.9415 L 234.79 495.32415 L 175.84 474.1689 Z" fill="#f6f6f6"/>
        </g>
        <g id="Graphic_924">
          <path d="M 213.74 156.79997 L 247.42 110.24837 L 180.05 93.32417 Z" fill="#fefefe"/>
        </g>
        <g id="Graphic_923">
          <path d="M 180.05 715.369 L 196.89 656.1242 L 171.63 706.9069 Z" fill="#dadada"/>
        </g>
        <g id="Graphic_922">
          <path d="M 209.53 719.6 L 196.89 656.12416 L 180.05 715.3689 Z" fill="#d9d9d9"/>
        </g>
        <g id="Graphic_921">
          <path d="M 163.21 668.8174 L 196.89 656.1242 L 163.21 660.3553 Z" fill="#ddd"/>
        </g>
        <g id="Graphic_920">
          <path d="M 255.84 601.1105 L 196.89 524.94154 L 163.21 558.8 Z" fill="#ededed"/>
        </g>
        <g id="Graphic_919">
          <path d="M 171.63 706.9068 L 196.89 656.1242 L 163.21 668.8173 Z" fill="#ddd"/>
        </g>
        <g id="Graphic_918">
          <path d="M 175.84 89.09314 L 192.68 59.47579 L 167.42 59.47579 Z" fill="#fefefe"/>
        </g>
        <g id="Graphic_917">
          <path d="M 196.89 161.03105 L 213.74 156.8 L 180.05 93.3242 Z" fill="#fefefe"/>
        </g>
        <g id="Graphic_916">
          <path d="M 192.68 59.475776 L 212.89 -4.000024 L 159 21.386276 Z" fill="#fefefe"/>
        </g>
        <g id="Graphic_915">
          <path d="M 212.89 800 L 234.79 783.0758 L 209.53 719.6 Z" fill="#d0d0d0"/>
        </g>
        <g id="Graphic_914">
          <path d="M 163.21 558.8 L 196.89 524.94156 L 154.79 550.3379 Z" fill="#e8e8e8"/>
        </g>
        <g id="Graphic_913">
          <path d="M 159 21.386318 L 212.89 -3.9999824 L 154.79 12.924218 Z" fill="#fefefe"/>
        </g>
        <g id="Graphic_912">
          <path d="M 167.42 59.47584 L 192.68 59.47584 L 159 21.386338 Z" fill="#fdfdfd"/>
        </g>
        <g id="Graphic_911">
          <path d="M 175.84 89.09314 L 167.42 59.47579 L 146.37 72.16894 Z" fill="#fdfdfd"/>
        </g>
        <g id="Graphic_910">
          <path d="M 196.89 656.1242 L 255.84 601.1105 L 163.21 558.8 Z" fill="#e7e7e7"/>
        </g>
        <g id="Graphic_909">
          <path d="M 212.89 800 L 209.53 719.6 L 180.05 715.3689 Z" fill="#d4d4d4"/>
        </g>
        <g id="Graphic_908">
          <path d="M 188.47 254.12423 L 205.32 216.04478 L 142.16 232.96898 Z" fill="#fefefe"/>
        </g>
        <g id="Graphic_907">
          <path d="M 171.63 706.9068 L 163.21 668.8173 L 142.16 694.2137 Z" fill="#d5d5d5"/>
        </g>
        <g id="Graphic_906">
          <path d="M 154.79 550.33786 L 196.89 524.9415 L 142.16 533.41366 Z" fill="#e7e7e7"/>
        </g>
        <g id="Graphic_905">
          <path d="M 196.89 656.1242 L 163.21 558.8 L 142.16 579.95524 Z" fill="#dfdfdf"/>
        </g>
        <g id="Graphic_904">
          <path d="M 205.32 216.04476 L 196.89 161.03106 L 146.37 169.49316 Z" fill="#fefefe"/>
        </g>
        <g id="Graphic_903">
          <path d="M 243.21 279.51046 L 217.95 258.3552 L 188.47 254.12416 Z" fill="#fefefe"/>
        </g>
        <g id="Graphic_902">
          <path d="M 180.05 715.369 L 171.63 706.9069 L 133.74 723.8311 Z" fill="#d7d7d7"/>
        </g>
        <g id="Graphic_901">
          <path d="M 171.63 706.9069 L 142.16 694.2137 L 133.74 723.8311 Z" fill="#d8d8d8"/>
        </g>
        <g id="Graphic_900">
          <path d="M 196.89 524.94156 L 175.84 474.16896 L 142.16 533.4137 Z" fill="#ededed"/>
        </g>
        <g id="Graphic_899">
          <path d="M 163.21 558.8 L 154.79 550.3379 L 142.16 579.9553 Z" fill="#e0e0e0"/>
        </g>
        <g id="Graphic_898">
          <path d="M 142.16 533.4137 L 129.53 491.09317 L 129.53 520.7105 Z" fill="#e2e2e2"/>
        </g>
        <g id="Graphic_897">
          <path d="M 159 21.386329 L 154.79 12.924229 L 129.53 12.924229 Z" fill="#fefefe"/>
        </g>
        <g id="Graphic_896">
          <path d="M 154.79 12.924166 L 129.53 -4.0000336 L 129.53 12.924166 Z" fill="#fefefe"/>
        </g>
        <g id="Graphic_895">
          <path d="M 142.16 533.4137 L 175.84 474.16896 L 129.53 491.09316 Z" fill="#e9e9e9"/>
        </g>
        <g id="Graphic_894">
          <path d="M 205.32 216.04473 L 146.37 169.49313 L 142.16 232.96893 Z" fill="#fefefe"/>
        </g>
        <g id="Graphic_893">
          <path d="M 163.21 660.3552 L 196.89 656.12416 L 142.16 579.9552 Z" fill="#dbdbdb"/>
        </g>
        <g id="Graphic_892">
          <path d="M 196.89 161.031 L 180.05 93.32416 L 146.37 169.4931 Z" fill="#fefefe"/>
        </g>
        <g id="Graphic_891">
          <path d="M 196.89 381.07583 L 243.21 279.51053 L 188.47 254.12423 Z" fill="#fdfdfd"/>
        </g>
        <g id="Graphic_890">
          <path d="M 180.05 715.369 L 129.53 728.0621 L 121.11 774.6137 Z" fill="#ccc"/>
        </g>
        <g id="Graphic_889">
          <path d="M 212.89 800 L 180.05 715.3689 L 121.11 774.6137 Z" fill="#d2d2d2"/>
        </g>
        <g id="Graphic_888">
          <path d="M 129.53 800 L 212.89 800 L 121.11 774.6137 Z" fill="#dedede"/>
        </g>
        <g id="Graphic_887">
          <path d="M 163.21 668.8174 L 163.21 660.3553 L 121.11 656.1242 Z" fill="#cfcfcf"/>
        </g>
        <g id="Graphic_886">
          <path d="M 133.74 723.8311 L 142.16 694.2137 L 121.11 711.1379 Z" fill="#d6d6d6"/>
        </g>
        <g id="Graphic_885">
          <path d="M 180.05 715.36896 L 133.74 723.83106 L 129.53 728.0621 Z" fill="#d9d9d9"/>
        </g>
        <g id="Graphic_884">
          <path d="M 142.16 232.96893 L 146.37 169.49313 L 129.53 177.95523 Z" fill="#fefefe"/>
        </g>
        <g id="Graphic_883">
          <path d="M 159 21.386274 L 129.53 12.924174 L 116.89 42.541524 Z" fill="#fdfdfd"/>
        </g>
        <g id="Graphic_882">
          <path d="M 167.42 59.47584 L 159 21.386338 L 116.89 42.54159 Z" fill="#fdfdfd"/>
        </g>
        <g id="Graphic_881">
          <path d="M 146.37 72.16892 L 167.42 59.47577 L 116.89 42.54152 Z" fill="#fdfdfd"/>
        </g>
        <g id="Graphic_880">
          <path d="M 142.16 694.2137 L 163.21 668.8173 L 121.11 656.1242 Z" fill="#cbcbcb"/>
        </g>
        <g id="Graphic_879">
          <path d="M 129.53 728.0621 L 133.74 723.831 L 121.11 711.1379 Z" fill="#d7d7d7"/>
        </g>
        <g id="Graphic_878">
          <path d="M 196.89 381.07583 L 188.47 254.12423 L 129.53 359.91053 Z" fill="#fcfcfc"/>
        </g>
        <g id="Graphic_877">
          <path d="M 154.79 12.924166 L 212.89 -4.0000336 L 129.53 -4.0000336 Z" fill="#fefefe"/>
        </g>
        <g id="Graphic_876">
          <path d="M 121.11 774.6137 L 129.53 728.0621 L 116.89 770.38265 Z" fill="#cacaca"/>
        </g>
        <g id="Graphic_875">
          <path d="M 213.74 440.3105 L 196.89 381.0758 L 175.84 474.16895 Z" fill="#fdfdfd"/>
        </g>
        <g id="Graphic_874">
          <path d="M 142.16 694.2137 L 121.11 656.1242 L 108.47 673.0484 Z" fill="#d3d3d3"/>
        </g>
        <g id="Graphic_873">
          <path d="M 121.11 711.1379 L 142.16 694.2137 L 112.68 706.9068 Z" fill="#c7c7c7"/>
        </g>
        <g id="Graphic_872">
          <path d="M 175.84 474.16895 L 196.89 381.0758 L 104.26 423.3863 Z" fill="#f7f7f7"/>
        </g>
        <g id="Graphic_871">
          <path d="M 196.89 381.0758 L 129.53 359.9105 L 104.26 423.3863 Z" fill="#f3f3f3"/>
        </g>
        <g id="Graphic_870">
          <path d="M 112.68 706.9068 L 142.16 694.2137 L 108.47 673.0484 Z" fill="#c8c8c8"/>
        </g>
        <g id="Graphic_869">
          <path d="M 163.21 660.3552 L 142.16 579.9552 L 121.11 656.12416 Z" fill="#d5d5d5"/>
        </g>
        <g id="Graphic_868">
          <path d="M 142.16 579.95526 L 154.79 550.3379 L 142.16 533.4137 Z" fill="#e0e0e0"/>
        </g>
        <g id="Graphic_867">
          <path d="M 129.53 491.09314 L 175.84 474.16894 L 104.26 423.3863 Z" fill="#f0f0f0"/>
        </g>
        <g id="Graphic_866">
          <path d="M 180.05 93.32422 L 175.84 89.09317 L 146.37 169.49317 Z" fill="#fdfdfd"/>
        </g>
        <g id="Graphic_865">
          <path d="M 112.68 706.9068 L 108.47 673.0484 L 95.84 694.2137 Z" fill="#c3c3c3"/>
        </g>
        <g id="Graphic_864">
          <path d="M 175.84 89.09316 L 146.37 72.16896 L 146.37 169.49316 Z" fill="#fdfdfd"/>
        </g>
        <g id="Graphic_863">
          <path d="M 95.84 694.2137 L 108.47 673.0484 L 87.42 685.74155 Z" fill="#d2d2d2"/>
        </g>
        <g id="Graphic_862">
          <path d="M 129.53 520.71047 L 129.53 491.0931 L 87.42 524.9415 Z" fill="#dedede"/>
        </g>
        <g id="Graphic_861">
          <path d="M 142.16 232.96898 L 129.53 177.95528 L 100.05 182.18633 Z" fill="#fcfcfc"/>
        </g>
        <g id="Graphic_860">
          <path d="M 129.53 728.06206 L 121.11 711.13786 L 112.68 706.9068 Z" fill="#c6c6c6"/>
        </g>
        <g id="Graphic_859">
          <path d="M 121.11 656.1242 L 142.16 579.9553 L 79 601.1105 Z" fill="#d2d2d2"/>
        </g>
        <g id="Graphic_858">
          <path d="M 142.16 533.4137 L 129.53 520.7105 L 87.42 524.94157 Z" fill="#dcdcdc"/>
        </g>
        <g id="Graphic_857">
          <path d="M 188.47 254.12424 L 142.16 232.969 L 129.53 359.91054 Z" fill="#fbfbfb"/>
        </g>
        <g id="Graphic_856">
          <path d="M 129.53 491.09314 L 104.26 423.3863 L 74.79 469.9379 Z" fill="#e6e6e6"/>
        </g>
        <g id="Graphic_855">
          <path d="M 142.16 579.9552 L 142.16 533.41366 L 87.42 524.9415 Z" fill="#d6d6d6"/>
        </g>
        <g id="Graphic_854">
          <path d="M 129.53 800 L 121.11 774.6137 L 70.58 791.5379 Z" fill="#d6d6d6"/>
        </g>
        <g id="Graphic_853">
          <path d="M 121.11 774.6137 L 116.89 770.38265 L 70.58 791.5379 Z" fill="#ddd"/>
        </g>
        <g id="Graphic_852">
          <path d="M 100.05 182.18627 L 129.53 177.95522 L 70.58 127.18262 Z" fill="#f9f9f9"/>
        </g>
        <g id="Graphic_851">
          <path d="M 146.37 169.49316 L 146.37 72.16896 L 70.58 127.18266 Z" fill="#fdfdfd"/>
        </g>
        <g id="Graphic_850">
          <path d="M 129.53 177.95528 L 146.37 169.49318 L 70.58 127.18268 Z" fill="#fbfbfb"/>
        </g>
        <g id="Graphic_849">
          <path d="M 74.79 469.93794 L 104.26 423.38634 L 70.58 427.6174 Z" fill="#e0e0e0"/>
        </g>
        <g id="Graphic_848">
          <path d="M 87.42 524.9416 L 129.53 491.09317 L 74.79 469.9379 Z" fill="#dedede"/>
        </g>
        <g id="Graphic_847">
          <path d="M 129.53 359.91054 L 142.16 232.969 L 79 254.12424 Z" fill="#f4f4f4"/>
        </g>
        <g id="Graphic_846">
          <path d="M 142.16 232.96896 L 100.05 182.1863 L 79 254.1242 Z" fill="#fafafa"/>
        </g>
        <g id="Graphic_845">
          <path d="M 129.53 359.9105 L 79 254.1242 L 62.16 338.75524 Z" fill="#eaeaea"/>
        </g>
        <g id="Graphic_844">
          <path d="M 100.05 182.18627 L 70.58 127.18262 L 62.16 182.18627 Z" fill="#f7f7f7"/>
        </g>
        <g id="Graphic_843">
          <path d="M 129.53 12.924166 L 129.53 -4.0000336 L 62.16 .23101637 Z" fill="#fefefe"/>
        </g>
        <g id="Graphic_842">
          <path d="M 116.89 42.54154 L 129.53 12.924188 L 62.16 .23103848 Z" fill="#fdfdfd"/>
        </g>
        <g id="Graphic_841">
          <path d="M 70.58 42.54154 L 116.89 42.54154 L 62.16 .23103848 Z" fill="#fcfcfc"/>
        </g>
        <g id="Graphic_840">
          <path d="M 79 601.1105 L 87.42 524.94154 L 66.37 537.64474 Z" fill="#d5d5d5"/>
        </g>
        <g id="Graphic_839">
          <path d="M 146.37 72.16898 L 116.89 42.54158 L 70.58 127.18268 Z" fill="#fdfdfd"/>
        </g>
        <g id="Graphic_838">
          <path d="M 142.16 579.95524 L 87.42 524.94154 L 79 601.1105 Z" fill="#c4c4c4"/>
        </g>
        <g id="Graphic_837">
          <path d="M 116.89 770.3827 L 129.53 728.0621 L 112.68 706.9069 Z" fill="#d9d9d9"/>
        </g>
        <g id="Graphic_836">
          <path d="M 49.53 495.3242 L 74.79 469.9379 L 49.53 486.8621 Z" fill="#cacaca"/>
        </g>
        <g id="Graphic_835">
          <path d="M 108.47 673.0484 L 121.11 656.1242 L 49.53 630.7379 Z" fill="#cfcfcf"/>
        </g>
        <g id="Graphic_834">
          <path d="M 121.11 656.1242 L 79 601.1105 L 49.53 630.7379 Z" fill="#c1c1c1"/>
        </g>
        <g id="Graphic_833">
          <path d="M 87.42 524.9416 L 74.79 469.9379 L 49.53 495.3242 Z" fill="#d3d3d3"/>
        </g>
        <g id="Graphic_832">
          <path d="M 62.16 182.18627 L 70.58 127.18262 L 49.53 156.79997 Z" fill="#f6f6f6"/>
        </g>
        <g id="Graphic_831">
          <path d="M 70.58 127.18268 L 116.89 42.54158 L 70.58 42.54158 Z" fill="#fcfcfc"/>
        </g>
        <g id="Graphic_830">
          <path d="M 95.84 694.2137 L 87.42 685.7416 L 45.32 702.6758 Z" fill="#d3d3d3"/>
        </g>
        <g id="Graphic_829">
          <path d="M 87.42 685.7415 L 108.47 673.0484 L 49.53 630.7379 Z" fill="#cfcfcf"/>
        </g>
        <g id="Graphic_828">
          <path d="M 66.37 537.6447 L 87.42 524.9415 L 49.53 495.3242 Z" fill="#c3c3c3"/>
        </g>
        <g id="Graphic_827">
          <path d="M 79 254.1242 L 100.05 182.1863 L 62.16 182.1863 Z" fill="#f8f8f8"/>
        </g>
        <g id="Graphic_826">
          <path d="M 70.58 127.18268 L 70.58 42.54158 L 41.11 89.09318 Z" fill="#fbfbfb"/>
        </g>
        <g id="Graphic_825">
          <path d="M 104.26 423.3863 L 129.53 359.91048 L 62.16 338.75523 Z" fill="#e3e3e3"/>
        </g>
        <g id="Graphic_824">
          <path d="M 87.42 685.7415 L 49.53 630.7379 L 36.89 651.8931 Z" fill="#cecece"/>
        </g>
        <g id="Graphic_823">
          <path d="M 62.16 338.7553 L 79 254.12424 L 41.11 275.2795 Z" fill="#ebebeb"/>
        </g>
        <g id="Graphic_822">
          <path d="M 70.58 427.61735 L 104.26 423.3863 L 62.16 338.75525 Z" fill="#e1e1e1"/>
        </g>
        <g id="Graphic_821">
          <path d="M 79 601.1105 L 66.37 537.6447 L 32.69 567.2621 Z" fill="#d1d1d1"/>
        </g>
        <g id="Graphic_820">
          <path d="M 32.69 579.9552 L 79 601.1105 L 32.69 567.2621 Z" fill="#d2d2d2"/>
        </g>
        <g id="Graphic_819">
          <path d="M 41.11 275.27945 L 79 254.1242 L 32.69 249.89315 Z" fill="#ececec"/>
        </g>
        <g id="Graphic_818">
          <path d="M 41.11 89.09313 L 70.58 42.54153 L 32.69 59.47578 Z" fill="#fbfbfb"/>
        </g>
        <g id="Graphic_817">
          <path d="M 49.53 630.73786 L 79 601.11046 L 32.69 579.9552 Z" fill="#c4c4c4"/>
        </g>
        <g id="Graphic_816">
          <path d="M 45.32 702.6758 L 87.42 685.7416 L 36.89 651.8932 Z" fill="#d3d3d3"/>
        </g>
        <g id="Graphic_815">
          <path d="M 116.89 770.3827 L 112.68 706.90686 L 45.32 702.6758 Z" fill="#d5d5d5"/>
        </g>
        <g id="Graphic_814">
          <path d="M 70.58 791.5379 L 116.89 770.3827 L 45.32 702.67584 Z" fill="#d7d7d7"/>
        </g>
        <g id="Graphic_813">
          <path d="M 112.68 706.9069 L 95.84 694.2137 L 45.32 702.6758 Z" fill="#c2c2c2"/>
        </g>
        <g id="Graphic_812">
          <path d="M 62.16 182.18633 L 49.53 156.80003 L 20.05 207.58268 Z" fill="#f2f2f2"/>
        </g>
        <g id="Graphic_811">
          <path d="M 32.69 249.89313 L 62.16 182.18628 L 20.05 207.58263 Z" fill="#ededed"/>
        </g>
        <g id="Graphic_810">
          <path d="M 36.89 651.8931 L 49.53 630.73786 L 20.05 618.0447 Z" fill="#cacaca"/>
        </g>
        <g id="Graphic_809">
          <path d="M 49.53 630.73786 L 32.69 579.9552 L 20.05 618.0447 Z" fill="#c5c5c5"/>
        </g>
        <g id="Graphic_808">
          <path d="M 79 254.1242 L 62.16 182.1863 L 32.69 249.89316 Z" fill="#efefef"/>
        </g>
        <g id="Graphic_807">
          <path d="M 70.58 42.541526 L 45.32 -4.000024 L 32.69 59.475776 Z" fill="#fbfbfb"/>
        </g>
        <g id="Graphic_806">
          <path d="M 70.58 42.541513 L 62.16 .23101286 L 45.32 -4.000037 Z" fill="#fdfdfd"/>
        </g>
        <g id="Graphic_805">
          <path d="M 74.79 469.9379 L 70.58 427.61734 L 49.53 486.8621 Z" fill="#dbdbdb"/>
        </g>
        <g id="Graphic_804">
          <path d="M 45.32 800 L 70.58 791.5379 L 20.05 791.5379 Z" fill="#cdcdcd"/>
        </g>
        <g id="Graphic_803">
          <path d="M 49.53 156.80004 L 70.58 127.18269 L 41.11 89.09319 Z" fill="#f9f9f9"/>
        </g>
        <g id="Graphic_802">
          <path d="M 62.16 .23103093 L 129.53 -4.000019 L 45.32 -4.000019 Z" fill="#fdfdfd"/>
        </g>
        <g id="Graphic_801">
          <path d="M 129.53 800 L 70.58 791.5379 L 45.32 800 Z" fill="#cdcdcd"/>
        </g>
        <g id="Graphic_800">
          <path d="M 70.58 791.5379 L 45.32 702.67584 L 20.05 791.5379 Z" fill="#d4d4d4"/>
        </g>
        <g id="Graphic_799">
          <path d="M 45.32 800 L 20.05 791.5379 L -1 800 Z" fill="#c6c6c6"/>
        </g>
        <g id="Graphic_798">
          <path d="M 62.16 338.75524 L 41.11 275.27944 L -1 295.5905 Z" fill="#e3e3e3"/>
        </g>
        <g id="Graphic_797">
          <path d="M 41.11 275.27948 L 32.69 249.89318 L -1 295.59053 Z" fill="#e5e5e5"/>
        </g>
        <g id="Graphic_796">
          <path d="M 45.32 702.6758 L 36.89 651.89315 L -1 716.21315 Z" fill="#d7d7d7"/>
        </g>
        <g id="Graphic_795">
          <path d="M -1 800 L 20.05 791.5379 L -1 716.2131 Z" fill="#cecece"/>
        </g>
        <g id="Graphic_794">
          <path d="M 20.05 791.5379 L 45.32 702.67584 L -1 716.2132 Z" fill="#d0d0d0"/>
        </g>
        <g id="Graphic_793">
          <path d="M -1 716.2131 L 36.89 651.8931 L -1 632.4263 Z" fill="#d4d4d4"/>
        </g>
        <g id="Graphic_792">
          <path d="M 36.89 651.8931 L 20.05 618.0447 L -1 632.42626 Z" fill="#bfbfbf"/>
        </g>
        <g id="Graphic_791">
          <path d="M 32.69 567.26206 L 66.37 537.6447 L -1 547.7952 Z" fill="#d1d1d1"/>
        </g>
        <g id="Graphic_790">
          <path d="M 66.37 537.6448 L 49.53 495.32424 L -1 547.7953 Z" fill="#d1d1d1"/>
        </g>
        <g id="Graphic_789">
          <path d="M -1 632.42626 L 20.05 618.0447 L -1 547.7952 Z" fill="#ccc"/>
        </g>
        <g id="Graphic_788">
          <path d="M 20.05 618.0447 L 32.69 579.9552 L -1 547.7952 Z" fill="#d1d1d1"/>
        </g>
        <g id="Graphic_787">
          <path d="M 32.69 579.95526 L 32.69 567.2621 L -1 547.79526 Z" fill="#cecece"/>
        </g>
        <g id="Graphic_786">
          <path d="M 49.53 486.8621 L 70.58 427.61734 L -1 464.0084 Z" fill="#cecece"/>
        </g>
        <g id="Graphic_785">
          <path d="M -1 547.7953 L 49.53 495.32423 L -1 464.00843 Z" fill="#bfbfbf"/>
        </g>
        <g id="Graphic_784">
          <path d="M 49.53 495.3242 L 49.53 486.8621 L -1 464.0084 Z" fill="#c9c9c9"/>
        </g>
        <g id="Graphic_783">
          <path d="M 45.32 -4.000037 L 3.21 .23101286 L -1 42.541513 Z" fill="#fafafa"/>
        </g>
        <g id="Graphic_782">
          <path d="M 32.69 59.475776 L 45.32 -4.000024 L -1 42.541526 Z" fill="#fbfbfb"/>
        </g>
        <g id="Graphic_781">
          <path d="M 20.05 207.58268 L 49.53 156.80003 L -1 127.18268 Z" fill="#f0f0f0"/>
        </g>
        <g id="Graphic_780">
          <path d="M 49.53 156.80004 L 41.11 89.09319 L -1 127.18269 Z" fill="#f6f6f6"/>
        </g>
        <g id="Graphic_779">
          <path d="M 32.69 59.47583 L -1 42.54158 L -1 127.18268 Z" fill="#f9f9f9"/>
        </g>
        <g id="Graphic_778">
          <path d="M 41.11 89.09319 L 32.69 59.47584 L -1 127.1827 Z" fill="#f9f9f9"/>
        </g>
        <g id="Graphic_777">
          <path d="M 62.16 338.75524 L -1 295.5905 L -1 379.37734 Z" fill="#dedede"/>
        </g>
        <g id="Graphic_776">
          <path d="M -1 464.0084 L 70.58 427.61736 L -1 379.37736 Z" fill="#c1c1c1"/>
        </g>
        <g id="Graphic_775">
          <path d="M 70.58 427.61735 L 62.16 338.75525 L -1 379.37735 Z" fill="#d7d7d7"/>
        </g>
        <g id="Graphic_774">
          <path d="M -1 295.59047 L 32.69 249.89312 L -1 210.95942 Z" fill="#e6e6e6"/>
        </g>
        <g id="Graphic_773">
          <path d="M 32.69 249.8932 L 20.05 207.5827 L -1 210.9595 Z" fill="#eaeaea"/>
        </g>
        <g id="Graphic_772">
          <path d="M 20.05 207.5826 L -1 127.18261 L -1 210.9594 Z" fill="#e4e4e4"/>
        </g>
        <g id="Graphic_771">
          <path d="M 3.21 .23103093 L 45.32 -4.000019 L -1 -4.000019 Z" fill="#fcfcfc"/>
        </g>
        <g id="Graphic_770">
          <path d="M -1 42.541513 L 3.21 .23101286 L -1 -4.000037 Z" fill="#fbfbfb"/>
        </g>
      </g>
    </g>
  </g>
</svg>
